
<svg width="25px" height="15px" viewBox="0 0 25 15" version="1.1" xmlns="http://www.w3.org/2000/svg" xmlns:xlink="http://www.w3.org/1999/xlink">
    <defs></defs>
    <g id="Page-1" style="height: 10px;" stroke="none" stroke-width="1" fill="none" fill-rule="evenodd">
        <g id="logo-min" fill="#FFFFFF" fill-rule="nonzero" style="height: 10px;">
            <path d="M13.4031679,5.32555993 C13.3711488,5.41677496 13.3819971,5.49642848 13.4063895,5.5327935 C13.4170406,5.54865698 13.4310449,5.55746256 13.4457724,5.55746256 C13.4663514,5.55746256 13.4939654,5.54180073 13.5090873,5.46739023 L13.5094818,3.13828119 C13.5094818,3.13135772 13.5058657,3.12503921 13.5000142,3.1216783 C13.497187,3.11999785 13.4940311,3.11919123 13.4908752,3.11919123 C13.4875221,3.11919123 13.4841032,3.12013229 13.4812103,3.12201439 C13.435713,3.15031324 13.3864022,3.1646307 13.3345273,3.1646307 C13.2355771,3.1646307 13.1295262,3.10957904 13.0643045,3.02441363 C13.0323512,2.98273838 13.0151253,2.93958432 13.0147308,2.90207659 C13.0470129,2.91955331 13.0826481,2.92862776 13.1194011,2.92862776 C13.267136,2.92862776 13.4520841,2.77967233 13.5092188,2.45272323 L13.5094818,1.58937326 C13.5095476,0.934197908 13.0544424,0.483769056 12.626228,0.392554021 C12.6249788,0.392285148 12.6237296,0.392150712 12.6224146,0.392150712 C12.6211654,0.392150712 12.6199162,0.392285148 12.618667,0.392554021 C12.4590317,0.425759789 12.2940052,0.511597372 12.1540284,0.634270504 C11.9678969,0.884187601 11.9170082,1.25032489 12.0327898,1.4888149 C12.0907792,1.60832878 12.2149107,1.75076405 12.4765864,1.75076405 C12.6890827,1.75069683 12.7825759,1.65591923 12.7829704,1.56194825 C12.7831676,1.51650878 12.7616681,1.47886661 12.7289258,1.46112102 L12.7454942,1.44895453 C12.8902048,1.45453364 12.9553607,1.59454906 12.9545717,1.723944 C12.9533883,1.92190147 12.8164359,2.13498302 12.5185991,2.13498302 C12.2475873,2.13484858 12.0844017,1.9686853 11.9948534,1.82920763 C11.991303,1.82376296 11.9853857,1.82060371 11.9792712,1.82060371 C11.9770358,1.82060371 11.9746689,1.82107424 11.9724992,1.82194807 C11.9643465,1.82517454 11.9594812,1.83384569 11.9608619,1.84271848 C12.171583,3.19575271 13.1092759,4.83594289 13.3917278,5.30646997 C13.3966589,5.3147378 13.400538,5.32112353 13.4031679,5.32555993 Z M12.2526499,7.10321124 C12.0843359,7.10542943 12.0099096,7.23959687 12.0106986,7.37161333 C12.0119478,7.57434328 12.1799987,7.78971024 12.4888154,7.78971024 C12.8255748,7.78937415 13.2336705,7.63168036 13.2820607,6.88206351 C13.2814032,6.85121037 13.2810745,6.82042446 13.2810745,6.7861432 C13.2810745,5.9463868 12.9422112,5.87849646 12.8383956,5.87762263 C12.7665992,5.87762263 12.7243235,5.93462362 12.7241262,5.98967529 C12.7241262,5.99814478 12.7251124,6.00614374 12.7270191,6.01347052 C12.6660053,5.98631438 12.6381941,5.92023894 12.6383913,5.85476846 C12.63872,5.74009428 12.7188007,5.62407575 12.8713352,5.62407575 C12.9383321,5.62481515 12.9990171,5.64175412 13.0541794,5.67428771 C13.0570723,5.67603538 13.0602939,5.67690922 13.0635156,5.67690922 C13.0676577,5.67690922 13.0718655,5.67543042 13.0752844,5.67260726 C13.0812674,5.6675659 13.0837001,5.65929806 13.0812017,5.65183685 C12.9505611,5.25034281 12.7748834,4.83668229 12.5888833,4.3986888 C12.1935428,3.46771736 11.7847239,2.50501896 11.7735468,1.56275487 C11.7734153,1.55233605 11.7651969,1.544001 11.755006,1.54393379 L11.7549402,1.54393379 C11.7447494,1.54393379 11.7364652,1.55220162 11.7362679,1.56262043 C11.7362679,1.56262043 11.7352817,1.57888723 11.7352817,1.58292032 L11.7352817,7.29881606 C11.7352817,7.30647893 11.7358077,7.31380571 11.7362679,7.32119971 L11.7367939,7.32946754 C11.7418565,7.3637488 11.7633559,7.37524311 11.7801873,7.37524311 C11.8095765,7.37524311 11.8412011,7.34284396 11.8412011,7.29041379 C11.8412011,7.27609633 11.8452118,6.93812345 12.187231,6.9342248 C12.3503509,6.9342248 12.437335,7.06550185 12.4374665,7.1889816 C12.4374665,7.23643762 12.4230678,7.28947274 12.3857889,7.31716662 C12.3909829,7.30103426 12.3938758,7.28221318 12.3938758,7.26164442 C12.3937443,7.18279753 12.3503509,7.10321124 12.2538333,7.10321124 L12.2526499,7.10321124 Z M13.7043578,8.38210384 C13.643081,8.37168502 13.4528731,8.36214005 12.862525,8.35824139 C12.7273479,8.35662816 12.6354984,8.27025283 12.5823743,8.19799331 C12.5788239,8.19328804 12.5733011,8.19046488 12.5674496,8.19046488 C12.5615981,8.19046488 12.556141,8.19322083 12.5525906,8.19799331 C12.499335,8.2697823 12.4074856,8.35541823 12.2723742,8.35615763 L12.264616,8.35615763 C12.2579754,8.35615763 11.6646687,8.35884636 11.5391565,8.37148337 L11.489517,8.32140585 C11.545797,8.30695394 11.5699921,8.265682 11.573411,8.22730043 C11.5795255,8.15739355 11.5206156,8.06906889 11.399377,8.04298825 C11.2223186,8.00433781 10.7635973,7.66421395 10.4689821,6.85954543 C10.5299302,6.81484535 10.751434,6.61574518 10.751434,6.08283965 L10.751434,1.90986942 C10.751434,1.67272377 10.6803608,1.59266695 10.6530755,1.57068661 C10.6628062,0.980578435 11.5448108,0.278484813 11.6194343,0.237212866 C11.6728214,0.205620334 11.6717695,0.167104332 11.6665097,0.146938885 C11.655727,0.105935811 11.6118734,0.0729316974 11.5685457,0.0603619025 L11.6143718,0.0115615225 C11.6714407,0.00967941422 12.0646116,0 12.3541642,0 C12.3905227,0 12.451931,0.0297776423 12.5013075,0.0537745234 C12.535562,0.0703774075 12.5650827,0.0846948744 12.584807,0.0894673633 C12.5861877,0.089736236 12.5876999,0.0899378904 12.5890806,0.0899378904 C12.590527,0.0899378904 12.591842,0.0898034541 12.5932884,0.0894673633 C12.612947,0.0848293107 12.6424677,0.0707807165 12.6765907,0.054446705 C12.7257699,0.030920351 12.786981,0.00168045386 12.8205123,0.00168045386 C13.1111169,0.00369699849 13.5681945,0.0166028841 13.6303917,0.0188883014 L13.6766781,0.0685625174 C13.6321012,0.0811323122 13.5891022,0.113531463 13.5783853,0.153795137 C13.5730598,0.173960583 13.5719421,0.212543804 13.6248032,0.244203554 C13.699887,0.286282119 14.5822203,0.995097556 14.5915565,1.5854746 C14.5574992,1.6117569 14.493198,1.69873719 14.4931323,1.9235147 C14.493198,2.20233561 14.493198,5.49239539 14.4931323,6.09648494 C14.493198,6.63080205 14.7158196,6.83111215 14.7757814,6.87540891 C14.4821524,7.67685096 14.0227079,8.01442053 13.8454523,8.05186105 C13.7248711,8.07700064 13.6656982,8.16451867 13.6713525,8.2342239 C13.6745084,8.27300877 13.6986378,8.31475125 13.7553123,8.32967368 L13.7034374,8.38156609 L13.7043578,8.38210384 Z M17.2142957,0.88896009 C17.2081154,0.88896009 16.5963336,0.904756357 16.5939667,0.94542334 L16.5939667,5.17015155 C16.5939667,5.17942766 16.6005415,5.1873594 16.6094831,5.18890542 C16.6105351,5.18910707 16.6115871,5.18924151 16.6125733,5.18924151 C16.6203973,5.18924151 16.627498,5.18420015 16.6301937,5.17647006 C16.8616911,4.50529679 17.5014814,3.93723617 17.6920181,3.77913907 C17.9063554,3.60087652 18.0206248,3.4289997 18.0055028,3.30760372 C17.99998,3.2631053 17.9764424,3.22741246 17.9386375,3.20576821 L17.9386375,1.59105371 C17.9386375,1.20031458 17.7612503,0.949658084 17.4519734,0.903210339 C17.3920116,0.893732579 17.311931,0.88896009 17.2142957,0.88896009 Z M19.0836984,9.01247569 C18.7453611,8.94424926 18.4015666,8.88052645 18.0616513,8.82298771 C17.1542024,7.97624062 17.260845,6.45307725 17.4672269,5.68558036 C17.4693308,5.67791749 17.4665694,5.66985131 17.4602576,5.66514604 C17.4599946,5.66487717 17.4121961,5.62481515 17.4295535,5.49925164 C17.6505971,5.49474802 17.8185165,5.20873478 17.8537573,4.93219929 C17.8806481,4.72147037 17.8336385,4.47578802 17.6211421,4.41818206 C17.6196299,4.41777875 17.6179862,4.4175771 17.6164083,4.4175771 C17.6130552,4.4175771 17.6097678,4.41845094 17.6068749,4.42026583 C16.9412457,4.82680122 16.6382806,5.65835701 16.6385436,6.25895122 C16.6385436,6.66588992 16.8139583,6.77444724 16.9175766,6.77444724 C16.9526201,6.77444724 16.9833242,6.76308737 17.002917,6.74305636 C17.0207346,6.81874401 17.0110697,6.8887181 16.9743168,6.94383699 C16.9334218,7.00527438 16.8621513,7.04190828 16.7837801,7.04190828 C16.7282891,7.04190828 16.6727324,7.02375938 16.6230929,6.9894109 C16.619937,6.98725992 16.6162552,6.98618443 16.6125733,6.98618443 C16.6096146,6.98618443 16.606656,6.98692383 16.6038946,6.98840263 C16.5977801,6.99169632 16.5939667,6.99814926 16.5939667,7.00520717 L16.5939667,7.77754376 C16.5940325,8.25559927 16.9386158,8.54107477 17.0454558,8.61803956 L16.9985777,8.66058865 C16.7399265,8.62536634 16.4782509,8.59283275 16.2205858,8.56392895 L16.1405052,8.47170564 C16.1368891,8.46753811 16.1317608,8.46531991 16.1265667,8.46531991 C16.1243313,8.46531991 16.1220959,8.46572322 16.1199262,8.46659706 C16.117625,8.46740368 16.1155869,8.46881526 16.1138774,8.47042849 C16.1109845,8.47291557 16.0484585,8.52541294 15.8963842,8.52541294 C15.8731096,8.52541294 15.8479282,8.5241358 15.8205114,8.52137985 C15.6202441,8.49899621 14.9967592,8.44757432 14.9154294,8.44293627 L14.8782162,8.4015971 C15.0619151,8.37222277 15.6141296,8.18690232 15.6139323,7.01623094 L15.6139323,1.23546968 C15.6139981,0.537274707 15.2723076,0.180144653 14.940282,0.131545928 L14.9808483,0.092357744 C15.4160977,0.124824112 15.8562782,0.166499368 16.2895551,0.216173584 C16.2892264,0.241716483 16.2938945,0.287155955 16.3249931,0.33178881 C16.3695043,0.395444402 16.4505711,0.43483424 16.5658925,0.448815616 C16.5911396,0.451907651 16.6179646,0.453386451 16.6478798,0.453386451 C16.7513666,0.453386451 16.8698438,0.435103113 17.0069934,0.413929394 C17.1795152,0.387243787 17.3749172,0.357062836 17.58886,0.357062836 C17.7035897,0.357062836 17.8109556,0.365532323 17.9170723,0.383076261 C18.5693546,0.491969671 18.9109136,0.968680821 18.9111109,1.3832824 L18.9111109,3.71602122 C18.9111766,3.95168807 19.0218299,4.09835808 19.0572021,4.13929394 L19.0170303,4.2157882 C18.8562773,4.18453176 18.699009,4.16866827 18.5493673,4.16866827 C18.3877596,4.16866827 18.23082,4.18715327 18.0828221,4.22365272 C18.0746694,4.22566927 18.0688178,4.23306327 18.0685548,4.24166719 C18.0682918,4.2502039 18.0737489,4.25793398 18.0817701,4.26042105 C18.501766,4.39035375 18.7030196,4.94799555 18.6287247,5.24617529 C18.627081,5.25256101 18.6287905,5.25935005 18.6333271,5.26405532 C18.6368774,5.26788675 18.6417428,5.26997051 18.6467396,5.26997051 C18.6479888,5.26997051 18.6493037,5.26976886 18.6506844,5.2695672 C18.6684363,5.26560133 18.6873716,5.26365201 18.7068987,5.26365201 C18.8181437,5.26365201 18.9473378,5.3273076 19.0439211,5.42968085 C19.1178214,5.50799 19.1616094,5.59880172 19.1669349,5.68282442 C19.1478024,5.67744696 19.1273549,5.67469102 19.1057239,5.67469102 C18.8150536,5.67469102 18.3537681,6.14649525 18.3536366,7.41248196 C18.3538338,8.42801384 18.8866527,8.89356677 19.1247249,8.97758947 L19.0836984,9.01247569 Z M5.09549306,9.13763589 C5.22186002,8.96407862 5.34710928,8.4948959 5.39004249,8.02766251 C5.41647305,7.73929663 5.49339779,6.43788594 5.57485912,5.06004822 C5.62969265,4.13176551 5.68636712,3.17189026 5.72962907,2.48976043 C5.79478498,1.45977666 5.64086975,1.06070247 5.50016979,0.907377865 C5.4482949,0.850712961 5.39951015,0.829539242 5.36834577,0.821674718 L5.41002978,0.768975685 C5.46775621,0.755800927 5.95777338,0.652419405 6.11550198,0.623246726 C6.12773104,0.620826873 6.14035459,0.619818601 6.15330687,0.619818601 C6.24916693,0.619818601 6.36757844,0.678903358 6.42964421,0.714125671 C6.43247136,0.715671689 6.4355615,0.716478306 6.43865164,0.716478306 C6.44364846,0.716478306 6.44871103,0.714394544 6.4522614,0.710428673 C6.55726039,0.595283974 6.644639,0.52880522 6.70492959,0.518117533 C6.84917992,0.490692526 7.38252479,0.404518852 7.45267752,0.394301693 L7.48430214,0.422197227 C7.34143251,0.453184796 7.22584816,0.530687328 7.14017898,0.652889933 C6.97890001,0.883112111 6.93425737,1.26013874 7.01460098,1.71446624 C7.0769955,2.06749599 7.28521828,3.1231571 7.61691513,4.76738037 C7.61875607,4.77625317 7.62631705,4.78257168 7.63519298,4.78257168 C7.64413466,4.78257168 7.65169564,4.77611873 7.65347082,4.76717872 L7.65610073,4.75319734 C7.82257376,3.87794976 8.16906383,2.05674108 8.25690268,1.53613648 C8.33579985,1.06910474 8.29424734,0.708681001 8.13993763,0.521411223 C8.06084321,0.42535648 7.95459502,0.376690537 7.82408595,0.376690537 C7.81271161,0.376690537 7.80107428,0.377026627 7.7892397,0.377833245 L7.82145605,0.339854988 C7.88450804,0.330175574 8.42620286,0.257579967 8.57334609,0.241985355 C8.57814566,0.241380392 8.58281375,0.241111519 8.58754758,0.241111519 C8.64645746,0.241111519 8.72851052,0.281576848 8.82489656,0.358071108 C8.82824969,0.360692616 8.83232605,0.362036979 8.83633665,0.362036979 C8.8405445,0.362036979 8.84488385,0.36055818 8.84836847,0.357600581 C8.92404401,0.292600626 9.06625616,0.182161198 9.16757328,0.172078475 C9.32523612,0.154534537 9.81492456,0.112455972 9.88034346,0.107750701 L9.92044953,0.145930613 C9.89618865,0.158164317 9.86153964,0.18135458 9.82301152,0.223500363 C9.69013554,0.36855714 9.47855962,0.781679916 9.55285446,1.91901109 C9.65870816,3.53520439 9.9224877,6.86774604 9.9687083,7.35023795 C10.0122332,7.80375884 10.1392577,8.23543383 10.2681231,8.37430653 L10.2179576,8.4293582 C10.1677264,8.43271911 9.91354602,8.4512041 9.80519391,8.46048021 C9.79644947,8.46115239 9.78796803,8.46148848 9.77974957,8.46148848 C9.6812596,8.46148848 9.63083116,8.41255366 9.63037093,8.41201592 C9.62682056,8.40852057 9.62215247,8.40663846 9.61728715,8.40663846 C9.61676117,8.40663846 9.61616944,8.40663846 9.61564346,8.40670568 C9.6101864,8.40724343 9.60518958,8.41013381 9.60209944,8.41463743 C9.60157346,8.41537682 9.55134226,8.48656085 9.47126163,8.49388763 C9.1514651,8.52016993 9.0344343,8.53260529 8.99156684,8.54295688 C8.95126353,8.52507685 8.91089448,8.50733126 8.87052543,8.48958567 C8.97618189,8.40475636 9.31096888,8.0724298 9.25712156,7.30076539 C9.24699643,7.15597749 9.23101975,6.87534169 9.21076948,6.52002653 C9.15836861,5.60196098 9.07079275,4.06555563 8.96520203,2.78236106 C8.96441306,2.77295052 8.95711507,2.76562374 8.94784466,2.76495156 C8.94745017,2.76495156 8.94705568,2.76488434 8.9466612,2.76488434 C8.93798251,2.76488434 8.93035578,2.77106841 8.9284491,2.77987399 C8.77229845,3.50307411 8.0543342,6.86458679 7.94164274,7.45879527 C7.82402021,8.07498409 7.94926947,8.50625577 8.14335651,8.59155561 L8.08990367,8.65393405 C7.96669259,8.67033528 7.84367875,8.68754313 7.72079641,8.70535594 C7.66195227,8.71389265 7.60304238,8.72256379 7.54426399,8.73143659 C7.42184188,8.74978714 7.29955127,8.76901153 7.17739215,8.78870645 L7.12716095,8.744813 C7.32105074,8.6078224 7.44695748,8.13890856 7.32894046,7.5544467 C7.21841867,7.00581213 6.51544488,3.9047698 6.34745966,3.16658003 C6.34542148,3.15790889 6.3378605,3.15185925 6.32924756,3.15185925 C6.32924756,3.15185925 6.32839284,3.15185925 6.32793261,3.15192647 C6.31872794,3.15259865 6.31142995,3.15999265 6.31070673,3.16933597 C6.21175653,4.41105694 6.16277453,5.85167642 6.13042669,6.80496428 C6.11543623,7.24403327 6.10373315,7.59081173 6.09222731,7.75973095 C6.03791976,8.56097135 6.38210867,8.79173127 6.48243957,8.84167436 L6.42228048,8.91527824 C6.35173326,8.92737751 5.93587942,9.00850982 5.8751286,9.02161736 C5.86552944,9.0236339 5.85612753,9.02444052 5.8472516,9.02444052 C5.78650078,9.02444052 5.75079981,8.98310136 5.75047107,8.98269805 C5.7469207,8.97853052 5.74179238,8.97617789 5.73640107,8.97617789 L5.73587509,8.97617789 C5.73035229,8.97631232 5.72509248,8.97906827 5.7216736,8.98350466 C5.72108187,8.98431128 5.66138301,9.06087276 5.54560141,9.08560904 C5.28556949,9.14005575 5.18188546,9.16176721 5.14158215,9.1754125 L5.09549306,9.13763589 Z M0.403544067,10.6003029 C0.185064652,10.6003029 0.0362777376,10.5043154 0.00557358874,10.3434624 C-0.0201337394,10.2090933 0.045219417,10.0726404 0.157647885,10.0259238 C0.172901338,10.0198069 0.187760305,10.0167149 0.201435815,10.0167149 C0.266788971,10.0167149 0.299071063,10.0889072 0.310248163,10.1211047 C0.244303278,10.156932 0.20715586,10.2418285 0.222672303,10.326389 C0.236282065,10.4007994 0.29749312,10.4803185 0.428199433,10.4803185 C0.481323528,10.4803185 0.542205844,10.467211 0.609005449,10.4414664 C1.24018281,10.2038503 1.44801111,9.31441964 1.39376931,9.00319958 C1.37812137,8.91339613 1.34340661,8.8932979 1.31651583,8.89262572 L1.31204499,8.86600733 C1.36273642,8.79314285 1.44130485,8.76047483 1.49804507,8.76047483 C1.52901221,8.76047483 1.55084042,8.7703559 1.55491678,8.78621938 L1.59094648,8.77647275 L1.59114373,8.78547998 C1.59752125,8.75718114 2.20562119,6.27528523 2.69570412,4.30081917 C2.69715056,4.2950384 2.69583561,4.28885433 2.69215374,4.28421628 C2.68860337,4.27971266 2.68327781,4.27709116 2.67762351,4.27709116 C2.67762351,4.27709116 2.66309329,4.27749447 2.65408586,4.27749447 C2.5540837,4.27749447 2.4842597,4.25672406 2.46091929,4.22109843 C2.63942413,4.13882341 2.83627258,3.70560241 2.94258651,3.30551995 L2.96954305,3.19702985 C3.01504041,2.99900517 3.03897256,2.80871058 3.03897256,2.64644595 C3.0390383,2.46361257 2.99038505,2.29691155 2.90202022,2.17706158 C2.81023651,2.05250634 2.67874122,1.98387661 2.5317295,1.98387661 C2.47650148,1.98387661 2.41864355,1.99342158 2.35986516,2.01217545 C1.94434006,2.14795612 1.80153618,2.49170976 1.8443379,2.77227834 C1.8749763,2.97305896 1.99864761,3.10803302 2.15203686,3.10803302 C2.18306975,3.10803302 2.21522035,3.10258835 2.24750244,3.09190066 C2.42692776,3.03402583 2.5121367,2.86309006 2.54053968,2.79076333 L2.56026397,2.80951719 C2.63403283,3.22062343 2.50319502,3.56108338 2.35552582,3.74317736 C2.26860743,3.85025588 2.16998597,3.91169327 2.08497427,3.91169327 C2.04933905,3.91176049 2.01679396,3.90087115 1.98852248,3.87942856 C1.98516935,3.87694148 1.98129024,3.87566434 1.97741113,3.87566434 C1.97372926,3.87566434 1.97004739,3.87680705 1.96695725,3.87895803 C1.96038249,3.88352886 1.95735809,3.89172948 1.95933052,3.899594 C2.17347059,4.7322925 1.84302294,6.02362046 1.19869605,6.25404429 C1.1430078,6.27420974 1.09133015,6.2844269 1.04504381,6.2844269 C0.890536853,6.2844269 0.835308833,6.17217258 0.823277015,6.14205885 L0.83984542,6.10952526 C0.863317329,6.13237943 0.903554886,6.14736908 0.947408563,6.14736908 C1.01683807,6.14736908 1.36332815,6.0985687 1.36359114,5.13452593 C1.36352539,4.5786318 1.19994526,4.53547774 1.14977981,4.53547774 C1.12624215,4.53547774 1.10401945,4.54408167 1.0871223,4.55960906 C1.08521562,4.56135673 1.08344043,4.56317162 1.08179674,4.56498651 C1.07410427,4.52062253 1.08442665,4.47034335 1.11217215,4.42355951 C1.14465149,4.36864228 1.19488269,4.33173952 1.23715842,4.33173952 C1.2502422,4.33173952 1.26260276,4.33523486 1.27384561,4.34202389 C1.27680425,4.34377157 1.28002588,4.3446454 1.28331327,4.3446454 C1.28699513,4.3446454 1.29061126,4.34356991 1.29376714,4.34135171 C1.29975018,4.33718419 1.30284032,4.32985741 1.30172261,4.32259785 C1.10586038,3.07778485 0.405319253,2.37112039 0.271259811,2.25032937 L0.321754,2.16859209 C0.985344953,1.9557122 1.66543856,1.76192226 2.3433625,1.59259973 C2.43915682,1.56194825 2.5329787,1.54655529 2.62351321,1.54655529 C2.69596711,1.54655529 2.7659226,1.55650358 2.83127575,1.57613128 C2.96448048,1.61592443 3.20051451,1.69846832 3.28447425,1.80373195 C3.28802462,1.80816835 3.29335018,1.81072264 3.29887299,1.81072264 C3.30012219,1.81072264 3.30130565,1.8105882 3.30248911,1.81038655 C3.30926111,1.80904219 3.31478392,1.80393361 3.31675634,1.79721179 C3.41347113,1.47073322 3.58868859,1.22915117 3.76324858,1.18176237 C3.95391675,1.12765176 4.51217997,0.98622476 4.58483112,0.969151348 L4.62040059,0.997382973 C4.54728922,1.05243464 4.37016507,1.24474578 4.24925515,1.71211361 C4.13340781,2.15299748 3.18578704,5.90101455 2.76395017,7.60539807 C2.76224073,7.61198545 2.76421316,7.61890891 2.76894699,7.62361419 C2.77249736,7.62717675 2.77716545,7.62912607 2.78196502,7.62912607 C2.78360871,7.62912607 2.78525241,7.62892442 2.7868961,7.62845389 C2.80274128,7.62341253 2.81608805,7.62132877 2.82910608,7.62132877 C2.87341999,7.62132877 2.91556423,7.64586339 2.94488768,7.6884797 C2.97809024,7.73694399 2.98946458,7.79912079 2.9763808,7.85524795 C2.97059501,7.85376915 2.96434898,7.85302975 2.95757698,7.85302975 C2.86566177,7.85302975 2.68689393,7.98981869 2.59530747,8.28336037 L2.57709537,8.35662816 C2.57656939,8.35972019 2.56920565,8.42209864 2.54698295,8.52312753 C2.53889599,8.59310162 2.53527987,8.65346353 2.53527987,8.71503536 C2.53527987,9.11108472 2.68814314,9.3572376 2.93423656,9.3572376 C2.9721072,9.3572376 3.01175303,9.35112075 3.05218783,9.33915592 C3.39532478,9.23940418 3.50939694,8.88395458 3.47014559,8.59592479 C3.44693668,8.42619895 3.3738253,8.31649892 3.28381678,8.31649892 C3.2733629,8.31649892 3.26277753,8.31804494 3.25219216,8.32100254 C3.21366404,8.33216075 3.18775947,8.34842754 3.17079658,8.36301388 C3.17204578,8.3297409 3.18808821,8.28578022 3.21668843,8.23973579 C3.28618369,8.12815365 3.42149234,8.01563046 3.56712337,8.01563046 C3.59690705,8.01563046 3.62636199,8.02040295 3.65463348,8.02988071 C3.65654016,8.03055289 3.65851259,8.03082176 3.66041927,8.03082176 C3.66541609,8.03082176 3.67021567,8.02887244 3.67376604,8.02510822 C3.67725067,8.02147844 3.6792231,8.01569768 3.6790916,8.0105891 C3.67810539,7.96051157 3.65785511,6.77377506 3.91624335,5.82586465 C4.21697306,5.54361562 4.78457246,5.05359528 4.83467216,5.01138227 L4.85393622,5.00916408 C4.76563714,5.28529625 4.10526782,7.48198553 4.83671034,9.18683958 L4.77609101,9.26407324 C4.48614391,9.3331735 4.19310667,9.40724791 3.90473751,9.48414548 C3.88027939,9.43796661 3.82511711,9.33915592 3.79322951,9.32362853 C3.79066535,9.3224186 3.78790395,9.32181364 3.7852083,9.32181364 C3.78113194,9.32181364 3.77712134,9.323158 3.77376821,9.32584672 C3.77205877,9.32719109 3.77054657,9.32887154 3.76942886,9.33068643 C3.76495802,9.33734103 3.60394205,9.57072246 3.2817786,9.66314742 C3.17244027,9.69467274 3.06783577,9.71060344 2.970858,9.71060344 C2.6599374,9.71060344 2.42830846,9.54659114 2.31877288,9.24861307 C2.31614298,9.24162238 2.30976546,9.23678267 2.30246747,9.23631214 L2.3016785,9.23631214 C2.29444626,9.23631214 2.28800299,9.24014358 2.2848471,9.24646208 C2.07340268,9.65837493 1.6587323,10.2094294 0.883830593,10.4956443 C0.700789157,10.5650806 0.5392472,10.6003029 0.403544067,10.6003029 Z M21.3936761,3.7503697 C21.3847344,3.7503697 21.3770419,3.75688986 21.3753982,3.76582988 C21.2265456,4.56350771 21.0958393,5.27682677 20.9868297,5.8860249 C20.9859749,5.89073017 20.9869612,5.89550266 20.9893938,5.89960296 C21.0425179,5.98631438 21.0951818,6.07463904 21.1481086,6.16329978 C21.3997906,6.58536257 21.6600198,7.02181005 22.0130846,7.34835584 C22.016635,7.35164953 22.0211058,7.35326277 22.0256424,7.35326277 C22.0286668,7.35326277 22.0317569,7.35245615 22.0345841,7.35091013 C22.0415533,7.34701148 22.045301,7.33901252 22.043986,7.33101356 C21.835829,6.10011472 21.5326666,4.42786148 21.4120197,3.76596431 C21.410376,3.75695708 21.4026835,3.7503697 21.3937418,3.7503697 L21.3936761,3.7503697 Z M24.3639573,10.6198634 C24.2587611,10.6198634 24.1472531,10.5982864 24.0323262,10.5560062 C23.5025317,10.3620146 23.1174478,10.1351533 22.8876598,9.88160642 C22.8839779,9.87757334 22.8789811,9.87548957 22.8739842,9.87548957 C22.8696449,9.87548957 22.8653056,9.87703559 22.8617552,9.88019484 C22.861032,9.88086702 22.7814116,9.95043781 22.7050128,9.95043781 C22.6933755,9.95043781 22.6823299,9.94875736 22.6722047,9.94546367 C22.6310467,9.93121342 21.9992119,9.73486919 21.905916,9.71020013 L21.8545013,9.64029325 C21.912425,9.63780618 22.0104547,9.61649802 22.0959924,9.51506583 C22.2559564,9.32530898 22.2967857,8.95191213 22.2171653,8.40522688 C22.1971123,8.26776576 22.1693668,8.08963765 22.1345863,7.87588392 C22.1336658,7.87037203 22.1304442,7.86553232 22.1257103,7.86270916 C21.7827049,7.65406401 21.5893411,7.40676842 21.5875001,7.40441578 L21.5908533,7.41933821 L21.5539688,7.41597731 C21.5578479,7.80691809 21.4608702,7.99008756 21.3788171,8.07478244 C21.3220769,8.13332945 21.2540938,8.16431702 21.1820344,8.16431702 C21.1035317,8.16431702 21.0279219,8.12640598 20.9805836,8.0653719 C21.0964967,8.05817955 21.1461362,7.90942578 21.146202,7.57199064 C21.1461362,7.31978813 21.0565222,6.95553295 20.9003715,6.57265834 C20.8974129,6.565466 20.8906409,6.56089517 20.8832114,6.56089517 C20.8825539,6.56089517 20.8818307,6.56096238 20.8811075,6.5610296 C20.872889,6.56197066 20.8663142,6.56828916 20.864802,6.57662421 C20.7789356,7.07061043 20.7138455,7.46309723 20.6716355,7.74312806 C20.4809016,9.00588831 20.9862379,9.372765 21.1445583,9.45510724 L21.1037947,9.48750639 C21.0661871,9.4738611 20.9744691,9.45040196 20.7547405,9.39427481 C20.6685453,9.37222725 20.3815569,9.29916112 20.308051,9.2831632 C20.2037095,9.25809083 20.1535441,9.17837009 20.1530181,9.17763069 C20.1495334,9.17198437 20.1434847,9.16869068 20.1371729,9.16869068 C20.135069,9.16869068 20.1328993,9.16909399 20.1308611,9.16976617 C20.1302694,9.17003504 20.0720827,9.19127598 19.9897009,9.19127598 C19.9545259,9.19127598 19.9196797,9.18737733 19.8862799,9.17984889 C19.7949564,9.15847352 19.450636,9.08298753 19.3860061,9.07021608 L19.3389308,9.01072802 C19.6169118,8.94673633 19.7659617,8.71785852 19.882861,8.18394472 C19.9374973,7.93443093 20.1433532,6.80348549 20.3576247,5.61863108 C20.3586767,5.61318641 20.3573617,5.6076073 20.3540086,5.60330534 C20.0837858,5.25477921 19.7941017,5.03894172 19.5162522,4.97918478 C19.4762776,4.97058085 19.437881,4.96627889 19.401917,4.96627889 C19.2888311,4.96627889 19.2227547,5.00829024 19.191919,5.03537916 L19.1712743,4.9877887 C19.1965871,4.94107208 19.3192722,4.74479507 19.5983052,4.74479507 C19.6453805,4.74479507 19.6951515,4.75057584 19.7463032,4.76186849 C19.9885832,4.81591188 20.2074571,4.93898832 20.4153512,5.13802128 C20.4188358,5.14138218 20.4233724,5.14319707 20.4281062,5.14319707 C20.4300129,5.14319707 20.4319853,5.14286098 20.4339577,5.1421888 C20.4403353,5.14003782 20.4451348,5.13445871 20.446384,5.12760246 L20.4895803,4.88870914 C20.6815634,3.82572125 20.8474447,2.9076557 20.8921531,2.68536526 C21.0021489,2.13955385 20.7821573,1.20367549 20.2645261,1.0785825 C20.2242885,1.06910474 20.1870753,1.06426504 20.153807,1.06426504 C20.0485451,1.06426504 19.9804305,1.11286376 19.9714888,1.19419773 C19.9628759,1.27243966 20.0187614,1.37151922 20.1244836,1.40835477 C20.112386,1.42152953 20.091807,1.43665361 20.0611029,1.43665361 C20.0530817,1.43665361 20.044666,1.43564534 20.0359215,1.43362879 C19.7733254,1.37393907 19.6714823,1.18216568 19.6878535,1.02924438 C19.7002141,0.914032462 19.7762183,0.839621965 19.8813488,0.839621965 C19.8999554,0.839621965 19.9196797,0.841907382 19.9398642,0.846410999 C20.4162716,0.955640499 20.8965582,1.07696927 21.367114,1.20696918 L21.3663908,1.20596091 C21.3682317,1.2070364 21.3700727,1.2077758 21.3717821,1.20824632 C21.3839454,1.21154001 21.4237228,1.22249657 21.5327981,1.25321527 C21.6301046,1.28043862 21.7983528,1.50938365 21.9006561,1.83162749 C21.9026943,1.83814765 21.9080856,1.84298735 21.9146604,1.84439894 C21.9159096,1.84466781 21.9171588,1.84480224 21.918408,1.84480224 C21.9237336,1.84480224 21.9289276,1.84244961 21.932478,1.83821487 C22.0270889,1.72663273 22.1998079,1.593608 22.4854157,1.593608 C22.6050106,1.593608 22.7367032,1.61686548 22.8769429,1.66257383 C23.4389537,1.84883533 23.5841245,2.0094195 23.6074649,2.03966767 C23.6110811,2.04430573 23.6175243,2.0482716 23.6232444,2.0482716 L23.6234416,2.0482716 C23.6297534,2.04813716 23.6356707,2.04477625 23.6390238,2.03926436 L23.7348181,1.88304937 C24.1414673,1.98145675 24.5507464,2.08934189 24.9514782,2.20367997 L25,2.28400566 C24.8529225,2.40405729 24.0440293,3.14191097 23.8538214,4.37704455 C23.8527694,4.38437133 23.8558595,4.39163089 23.8618426,4.39579842 C23.8649985,4.3979494 23.8686803,4.39902489 23.8722307,4.39902489 C23.8755838,4.39902489 23.878937,4.39808383 23.8819613,4.39626894 C23.8928755,4.38947991 23.9049073,4.38598457 23.9176623,4.38598457 C23.9583601,4.38598457 24.0055012,4.42073635 24.037586,4.47437644 C24.065989,4.52183246 24.0767716,4.57298547 24.0692106,4.61829051 C24.0677642,4.61674449 24.066252,4.61526569 24.064674,4.61378689 C24.0481056,4.59812506 24.0262117,4.58952114 24.0031342,4.58952114 C23.9538893,4.58952114 23.7933335,4.63274241 23.7932678,5.18910707 C23.793465,6.15214157 24.1323941,6.20087473 24.2003772,6.20087473 C24.2433761,6.20080751 24.2828247,6.1859523 24.3060336,6.16309813 L24.3219446,6.19516119 C24.3101757,6.22514049 24.2556052,6.3381342 24.1045171,6.3381342 C24.05948,6.3381342 24.0092488,6.3281187 23.95527,6.30828934 C23.3247501,6.07934431 23.0016004,4.78862131 23.2112039,3.95525063 C23.2131763,3.94738611 23.2100862,3.93911828 23.2035114,3.93468188 C23.2003555,3.9325309 23.1967394,3.93145541 23.1931233,3.93145541 C23.1891784,3.93145541 23.1851678,3.93273255 23.1818805,3.93528684 C23.1542007,3.95679665 23.1225103,3.96761877 23.0876641,3.96761877 C23.0067945,3.96761877 22.9126439,3.90893733 22.8293416,3.80663129 C22.6813437,3.62500784 22.5499799,3.28286744 22.6232227,2.86577879 L22.6412376,2.84830207 C22.6445907,2.85670434 22.6488643,2.86678706 22.6545186,2.8791552 C22.6902853,2.95766601 22.7735876,3.09700924 22.928752,3.14802782 C22.9601794,3.15858107 22.9916068,3.16402574 23.0219822,3.16402574 C23.1712293,3.16402574 23.2922707,3.03032883 23.3231721,2.83129588 C23.3654479,2.55865904 23.2257999,2.20374719 22.8192822,2.06843704 C22.7616873,2.0497504 22.7051443,2.04027264 22.651034,2.04027264 C22.5069809,2.04027264 22.3780498,2.10890237 22.288107,2.23365927 C22.2015831,2.35350924 22.1539818,2.52021026 22.1540476,2.70304364 C22.1540476,3.34154889 22.2434644,3.66480099 22.4433372,3.74418563 C22.4161177,3.79748963 22.3324867,3.8036737 22.2954707,3.8036737 C22.2925778,3.8036737 22.2900137,3.80360648 22.2877783,3.80360648 L22.2763382,3.78344103 C22.2729193,3.77745862 22.266739,3.77396327 22.26023,3.77396327 C22.2581261,3.77396327 22.2558907,3.77429936 22.2537867,3.77510598 C22.2453053,3.77826523 22.2402427,3.78727247 22.2418864,3.79634692 C22.4668091,5.07510508 22.7739163,6.76597776 22.9685951,7.82533587 C22.970173,7.83387257 22.977208,7.8402583 22.9857552,7.84086326 C23.0015347,7.84187153 23.0171169,7.84234206 23.0323703,7.84234206 C23.2717575,7.84227484 23.4755094,7.71738351 23.5958934,7.49818511 L23.6208775,7.53549119 C23.7052974,7.66125635 23.7926103,7.79118904 23.8535584,7.91991181 C23.6552635,8.07975658 23.4124574,8.16075446 23.131715,8.16075446 C23.1060734,8.16075446 23.0800374,8.16001506 23.0534753,8.15860348 L23.0525548,8.15860348 C23.0471635,8.15860348 23.0420352,8.16102333 23.0384848,8.16512364 C23.0347372,8.16956003 23.0331593,8.17540801 23.0342112,8.18118878 C23.1066651,8.57293618 23.1553184,8.83065058 23.1749112,8.92657089 C23.3423704,9.75221148 23.6747248,10.2468027 24.1907123,10.4384416 C24.2577749,10.4637156 24.3201694,10.4766215 24.3761206,10.4766215 C24.5375311,10.4766215 24.6141271,10.3706185 24.6306297,10.279874 C24.6450942,10.2000188 24.6188609,10.1280282 24.5661971,10.0989227 C24.5719171,10.0519372 24.6117602,10.0445432 24.6362183,10.0445432 C24.6818472,10.0445432 24.7354315,10.0693467 24.7761293,10.1093415 C24.810581,10.143085 24.8515418,10.2025059 24.8514761,10.2935865 C24.8513446,10.4303754 24.6819129,10.6198634 24.3640231,10.6198634 L24.3639573,10.6198634 Z M18.7731723,12.6575818 C18.7583791,12.6575818 18.7424682,12.6594639 18.725834,12.6631609 C18.6209008,12.6871577 18.4727713,12.8147378 18.5216218,13.0553788 C18.5644893,13.2710819 18.7804045,13.3588015 18.9892191,13.4435636 C19.1826486,13.5221417 19.3654271,13.5963505 19.4046784,13.7631187 C19.4076371,13.7779067 19.4095437,13.7920225 19.4108587,13.8061384 C19.4116477,13.8148095 19.4180252,13.821733 19.4263751,13.8232118 C19.4274271,13.8233462 19.4284791,13.8234134 19.4293995,13.8234134 C19.4367633,13.8234134 19.4434695,13.8190442 19.4464939,13.8120536 C19.4572108,13.7871828 19.4667442,13.7630515 19.4748311,13.7369037 C19.4951472,13.5751768 19.4677304,13.350937 19.3784451,13.2472866 C19.3470177,13.2108544 19.3108565,13.1923694 19.2706847,13.1923694 C19.2600993,13.1923694 19.249251,13.193781 19.2383369,13.1963353 C19.2046741,13.2039309 19.179953,13.2247685 19.1708798,13.2533363 C19.1707483,13.2538068 19.1706168,13.2542773 19.1704196,13.2548151 C19.1598342,13.2404976 19.1547716,13.2222143 19.1565468,13.2017799 C19.1601629,13.1607096 19.1948777,13.1055235 19.2810728,13.0848876 C19.2925787,13.0821316 19.3061884,13.0806528 19.3205872,13.0806528 C19.3454398,13.0806528 19.3715416,13.0848203 19.3962627,13.0925504 C19.3981694,13.0931554 19.3999446,13.0934243 19.4017855,13.0934243 C19.4067823,13.0934243 19.4116477,13.0913405 19.415198,13.0875763 C19.4201291,13.0824005 19.421707,13.0748721 19.4194059,13.068083 C19.3480039,12.8592362 19.1957981,12.6940812 19.0122965,12.6262581 C19.0101926,12.6255187 19.0080886,12.6251826 19.0059847,12.6251826 C19.0002647,12.6251826 18.9947419,12.6278713 18.9911257,12.6326438 C18.9861947,12.6392984 18.9860632,12.6483729 18.9907313,12.6552291 C19.019463,12.6967027 19.0268267,12.7471836 19.0105213,12.7902032 C18.9929667,12.8365837 18.9490472,12.8697895 18.8869157,12.8836364 C18.866534,12.8883417 18.8478616,12.8906943 18.831359,12.8906943 C18.8038765,12.8906943 18.7858616,12.8842414 18.7741585,12.8767129 C18.7905297,12.8751669 18.8122264,12.8720749 18.8397089,12.8657564 C18.8776453,12.8572197 18.9022349,12.8129901 18.8969094,12.7629126 C18.8917153,12.7143139 18.8561458,12.6575818 18.7731723,12.6575818 Z M18.711238,13.83437 C18.6861224,13.8589718 18.6730386,13.9017226 18.6778382,13.9502541 C18.6864512,14.0377721 18.7569984,14.1401454 18.927219,14.1401454 L18.9272848,14.1401454 C18.963446,14.1401454 19.0032891,14.1353729 19.0453675,14.126164 C19.2396518,14.0825394 19.3160506,13.9491786 19.3048077,13.8437805 C19.2956688,13.7578757 19.2318279,13.7002026 19.1459614,13.7002026 C19.1293273,13.7002026 19.1117727,13.7022863 19.0938893,13.7065211 C19.0039465,13.7268882 18.9681798,13.778915 18.9727164,13.8214641 C18.9731109,13.82543 18.9738999,13.8292614 18.9750176,13.8328912 C18.928797,13.8254972 18.8917153,13.7935013 18.8834968,13.7513556 C18.8732402,13.6993959 18.9096644,13.6501922 18.9809349,13.6196752 C18.9883643,13.6164487 18.9930324,13.6087186 18.9923092,13.6004508 C18.9916517,13.5922502 18.9858659,13.5853939 18.978042,13.5835118 C18.8101225,13.5430465 18.5189262,13.4264902 18.4541647,13.1001461 C18.4310216,12.984867 18.4565317,12.8618577 18.5242517,12.7626437 C18.5297088,12.7545776 18.5283281,12.743621 18.5210958,12.7373025 C18.5176112,12.7342105 18.5132719,12.7326644 18.5089325,12.7326644 C18.5043302,12.7326644 18.4997279,12.7344121 18.4961117,12.7378402 C18.3341753,12.8947274 18.2635623,13.1484759 18.3117554,13.4000063 L18.3492973,13.5909731 C18.3761223,13.7280309 18.4368074,13.8524517 18.524712,13.9509935 C18.5282623,13.9550266 18.5332592,13.9571776 18.5384532,13.9571776 C18.5398997,13.9571776 18.5412804,13.9570431 18.5427268,13.956707 C18.5493016,13.955161 18.5545614,13.9500524 18.5564023,13.9433978 C18.571327,13.8900266 18.6159039,13.8480825 18.6698828,13.8364537 C18.6788244,13.8346389 18.6881606,13.8336306 18.6975625,13.8336306 C18.7022306,13.8336306 18.7067672,13.8338322 18.711238,13.83437 Z M18.6680418,14.3649229 C18.647923,14.3291628 18.5657385,14.3003935 18.5475264,14.294411 C18.2217468,14.2191939 17.9698019,13.9845353 17.8885378,13.6816503 C17.8657233,13.6419244 17.8320606,13.6144322 17.811876,13.6003164 C17.8250913,13.5779327 17.8461963,13.5358542 17.8528368,13.4849028 C17.8212779,13.0246601 18.1470575,12.6035384 18.6107756,12.5015012 C18.6731044,12.4879231 18.7354989,12.4736729 18.7978277,12.4594899 L18.8141331,12.4557256 C18.9314926,12.4293089 19.0489837,12.4016822 19.165883,12.3735178 C19.1655542,12.382189 19.1670664,12.3897174 19.1691046,12.3956326 C19.1780463,12.4215788 19.2043453,12.4420804 19.2473443,12.4565995 C19.5403815,12.5256325 19.7798345,12.7237916 19.8895673,12.9870852 C19.8910137,12.9905133 19.8933806,12.9934037 19.8962735,12.9954202 C19.9225068,13.0555805 19.9705026,13.0938948 19.9966044,13.1113043 C19.9786553,13.1411492 19.9478197,13.2040654 19.9628759,13.2658388 C19.9590625,13.2698719 19.9606405,13.2767954 19.9611665,13.2824417 C19.9994316,13.726216 19.6738493,14.1413553 19.2038194,14.2482322 L18.9881671,14.2966292 L18.9581862,14.3030822 C18.8614056,14.323987 18.7649538,14.3448919 18.6680418,14.3649229 Z M6.26987744,14.3875754 C6.21057307,14.3756106 5.85474683,14.3004607 5.81733642,14.291319 C5.79991329,14.2871515 5.73870224,14.2396282 5.70339576,14.1699902 C5.7008316,14.1650161 5.69616352,14.1613863 5.69077221,14.1601764 C5.689523,14.1599075 5.6881423,14.1597731 5.68682735,14.1597731 C5.68268525,14.1597731 5.67867464,14.1611174 5.67538726,14.1637389 C5.62252616,14.2056831 5.55638403,14.2252436 5.52837553,14.2252436 C5.52824404,14.2251763 5.52166927,14.2247058 5.52166927,14.2247058 C5.48254943,14.216438 5.13007632,14.131407 5.07162666,14.1168207 C5.06478891,14.1010244 5.05781966,14.0851609 5.0511134,14.0693647 C5.06971998,14.0725239 5.09542731,14.0755487 5.12567122,14.0755487 C5.25098623,14.0755487 5.47314751,14.0223792 5.55243917,13.6660557 C5.56690365,13.6011902 5.61036284,13.4093496 5.61036284,13.4093496 C5.60622074,13.3602131 5.5849185,13.3186051 5.57117725,13.2963559 C5.59464916,13.2796186 5.63593868,13.2444635 5.65921334,13.1902856 C5.70188356,13.000596 5.80096526,12.5611237 5.80096526,12.5611237 C5.80214871,12.5558807 5.80109675,12.550436 5.79820386,12.5461341 C5.79524521,12.5416977 5.79070862,12.5388073 5.78558031,12.5380007 C5.76112219,12.5342364 5.73659832,12.5323543 5.71279767,12.5323543 C5.38064058,12.5323543 5.19990031,12.8915682 5.14256837,13.1131192 C5.0972025,13.1199082 5.05150788,13.1266973 5.00601052,13.1330158 C5.09759698,12.7475197 5.10542095,12.4303172 5.027247,12.2921839 L5.09687376,12.2296038 C5.13487589,12.2427113 5.23067021,12.2665065 5.47196406,12.326129 C5.62344662,12.363704 5.89551037,12.4303844 6.0157628,12.4557929 C6.02976705,12.4588849 6.04206186,12.4627163 6.05376494,12.4670855 C6.07085933,12.4695054 6.08394311,12.4713875 6.09834184,12.4745467 C6.28427617,12.5192468 6.923672,12.6492467 7.02426589,12.6667234 L7.06049284,12.7513511 C6.93313966,12.8429694 6.80966558,13.1342929 6.73372706,13.5236877 C6.7103209,13.5080931 6.61873443,13.446454 6.61873443,13.446454 C6.65969521,13.2109888 6.63845872,12.7580057 6.27329632,12.6481712 C6.27152113,12.6476335 6.26981169,12.6473646 6.26803651,12.6473646 C6.26468338,12.6473646 6.26133025,12.6482384 6.25843735,12.6500533 C6.25396651,12.6528093 6.25081062,12.6572457 6.24975866,12.6624887 C6.22615526,12.7780367 6.17684453,13.0166611 6.12227398,13.2774004 C6.11642244,13.3443496 6.14127505,13.4006112 6.15646276,13.4280362 C6.13410856,13.4423537 6.09623792,13.4710559 6.07414671,13.5122606 C6.05455391,13.6041478 6.03680205,13.6901198 6.01964191,13.7714538 C5.98466417,13.9388942 6.00162706,14.0770947 6.07020185,14.1824256 C6.1427215,14.2939405 6.25370352,14.3374979 6.30807682,14.3528908 C6.30505243,14.3556468 6.27960809,14.3789043 6.26987744,14.3875754 Z M16.1295254,13.070839 C16.1278159,13.070839 16.1261065,13.0710406 16.1244628,13.0715112 C15.8508211,13.1506269 15.6714615,13.4677622 15.707294,13.809096 L15.7090692,13.8250267 C15.7157097,13.8841786 15.7222845,13.9433978 15.7282675,14.002617 C15.7458879,14.1636717 15.8115698,14.314442 15.9133471,14.4269652 C15.9169632,14.4309983 15.9220258,14.4330821 15.9270226,14.4330821 C15.9306387,14.4330821 15.9343864,14.4320066 15.937608,14.4297212 C15.9452347,14.4243437 15.9477989,14.4139921 15.9437225,14.4055226 C15.9253132,14.3680149 15.9137416,14.329835 15.9100597,14.295016 C15.8873768,14.078103 16.0801489,13.8798095 16.250238,13.7047734 C16.3964608,13.5543392 16.522762,13.4243392 16.5049444,13.2995151 C16.4918606,13.2024521 16.4215764,13.1345618 16.3341978,13.1345618 C16.3265053,13.1345618 16.3186156,13.1350995 16.3105286,13.1361078 C16.2040832,13.150358 16.1613472,13.2349185 16.1662783,13.312421 C16.1689739,13.3551718 16.1854109,13.390663 16.2096717,13.4118367 C16.202571,13.4127105 16.195536,13.4131138 16.1885667,13.4131138 C16.1049357,13.4131138 16.0525349,13.3491221 16.0393853,13.2896341 C16.0263016,13.2309526 16.0453026,13.1522402 16.1375466,13.1070696 C16.146291,13.1027676 16.1503674,13.0923488 16.1469485,13.0830727 C16.1441213,13.0755442 16.1370863,13.070839 16.1295254,13.070839 Z M16.4957397,13.1185639 C16.4898882,13.1185639 16.4841681,13.121387 16.4806178,13.1264956 C16.475095,13.1343601 16.4762127,13.1451823 16.4832477,13.1517024 C16.5265096,13.1916972 16.5522827,13.2414386 16.5601067,13.2994479 C16.5893644,13.5023795 16.4341342,13.6628293 16.2839666,13.8181032 C16.1406367,13.9664537 15.99231,14.1197783 16.0130205,14.3085941 C16.0356377,14.506686 16.152274,14.6202174 16.3331458,14.6202174 C16.3518839,14.6202174 16.3709507,14.6189403 16.3902805,14.6164532 C16.4128977,14.6129579 16.4332795,14.6087903 16.4528065,14.6039506 C16.460236,14.6020685 16.4675997,14.5995815 16.4750292,14.5970944 L16.4931098,14.5908431 C16.5009338,14.5880872 16.5090865,14.5851968 16.5161215,14.5818359 C16.5163187,14.5817686 16.5221045,14.5793488 16.5223018,14.5792816 C16.6685903,14.5103157 16.697848,14.3857605 16.6794386,14.2997213 C16.6612923,14.2151608 16.5989635,14.1582943 16.5244714,14.1582943 C16.5172392,14.1582943 16.5098755,14.158832 16.5023802,14.1599747 C16.4528723,14.1663605 16.4205902,14.1995662 16.4113198,14.2283356 C16.4015234,14.2173118 16.3971183,14.2011795 16.396132,14.1864587 C16.3922529,14.1271723 16.4395255,14.0316553 16.5856825,14.0114898 C16.5979773,14.0096749 16.6097461,14.0088683 16.6210547,14.0088683 C16.7420961,14.0088683 16.8017293,14.1029065 16.8173114,14.1908951 C16.8188236,14.1995662 16.8259244,14.2059519 16.8344058,14.2065569 L16.8352606,14.2065569 C16.843742,14.2065569 16.8509085,14.2012467 16.8534726,14.1933149 C16.8685289,14.1447162 16.8785225,14.0940337 16.8831248,14.042679 C16.8618883,13.8661642 16.7420961,13.7857713 16.6678013,13.7857713 C16.662673,13.7857713 16.6576762,13.7861074 16.6529423,13.7868468 C16.6451184,13.7879895 16.6377546,13.790006 16.6311141,13.7928292 C16.6397271,13.7339461 16.6919964,13.7047062 16.7403867,13.6975138 C16.7489339,13.6963039 16.7577441,13.6956317 16.7665543,13.6956317 C16.7893029,13.6956317 16.8111969,13.6998665 16.8298035,13.7076638 C16.8321047,13.708672 16.8345373,13.7091426 16.83697,13.7091426 C16.8409806,13.7091426 16.8450569,13.7077982 16.8483443,13.7051095 C16.8536041,13.7010092 16.8562998,13.6942201 16.8553793,13.6874311 L16.8515002,13.6587289 C16.8177059,13.4254147 16.6880516,13.2244997 16.5047472,13.1209165 C16.50192,13.119236 16.4988299,13.1185639 16.4957397,13.1185639 Z M16.1728531,14.7711894 C15.7184711,14.7711894 15.3357541,14.4689094 15.2629057,14.0524257 C15.2516628,14.0270844 15.2320043,13.9960296 15.1940022,13.9640338 C15.2093214,13.943129 15.2341082,13.903403 15.2450223,13.852855 C15.247981,13.5829741 15.3733617,13.3288222 15.58954,13.1518368 C15.6389822,13.1079434 15.6612049,13.0630417 15.6495676,13.031113 C15.6462144,13.0220386 15.637996,13.008595 15.6175485,13.0016043 C15.6285283,12.9972351 15.6429928,12.9932692 15.6621254,12.9911855 C15.9602252,12.9601307 16.0535868,12.9479642 16.0828445,12.9372765 L16.0798859,12.9407046 L16.0994787,12.9382176 C16.1614787,12.9302858 16.2238732,12.9223541 16.2858733,12.9138174 C16.3288722,12.9079694 16.3726601,12.9050118 16.4159221,12.9050118 C16.838022,12.9050118 17.2092989,13.1791274 17.3187687,13.5716814 C17.3425694,13.6219606 17.3782046,13.6564435 17.3988493,13.6734497 C17.3839904,13.6943546 17.360387,13.733005 17.353089,13.7769657 C17.3870805,14.2478289 17.0219181,14.6661946 16.5215785,14.7339505 C16.4485329,14.7439661 16.376342,14.7534438 16.3033621,14.7627871 C16.2600344,14.7683662 16.216115,14.7711894 16.1728531,14.7711894 Z M8.46203533,13.2409009 C8.45526332,13.2409009 8.4488858,13.2446651 8.44566416,13.2508492 L8.32902785,13.470787 C8.26235974,13.5965522 8.18714443,13.7381808 8.11554525,13.8739615 C8.11094292,13.8828343 8.11377007,13.8938581 8.12212002,13.8991683 L8.16498748,13.9267277 C8.30305753,14.0154557 8.44572991,14.1073429 8.60707463,14.1651505 C8.60904705,14.1658899 8.61115098,14.1661588 8.61318916,14.1661588 C8.61759425,14.1661588 8.62186785,14.1646128 8.62535247,14.1616552 C8.63034929,14.1572188 8.63271621,14.1503625 8.63153275,14.1437079 C8.57242562,13.8154817 8.51318699,13.4607715 8.48037892,13.2568316 C8.47906397,13.2487654 8.47301518,13.2424469 8.46512547,13.2411698 C8.4640735,13.2409681 8.46302154,13.2409009 8.46203533,13.2409009 Z M9.54404427,14.8751087 C9.53845572,14.8751087 9.53266993,14.8748398 9.52681839,14.8743693 L9.35863592,14.8575647 C9.3508777,14.8571614 9.28710249,14.8505068 9.22990204,14.8445916 L9.14627104,14.8359877 C9.12832193,14.8337023 9.05021373,14.7907499 8.98854245,14.7217841 C8.98505782,14.7178854 8.980061,14.7156 8.97480119,14.7156 C8.9744067,14.7156 8.97388072,14.7156 8.97335474,14.7156672 C8.9676347,14.7161377 8.96244063,14.7192298 8.95928474,14.7241367 C8.92595069,14.7755586 8.86953921,14.8024458 8.84863146,14.8024458 C8.80885414,14.7988161 8.44263977,14.7524355 8.38839797,14.7451088 C8.38839797,14.7451088 8.36170442,14.7119702 8.34947536,14.6968461 C8.35328873,14.6969806 8.35729933,14.6970478 8.36137569,14.6970478 C8.41482852,14.6970478 8.51463344,14.6853518 8.58353697,14.6075132 C8.64441929,14.5386818 8.66835143,14.4340231 8.65480741,14.2964948 C8.65408419,14.2885631 8.64849564,14.2819085 8.64093466,14.2799591 C8.55243833,14.2565672 8.46749238,14.2247058 8.38136297,14.1824256 C8.37879881,14.1811484 8.37603741,14.1805435 8.37327601,14.1805435 C8.36965989,14.1805435 8.36610952,14.181619 8.36301938,14.1837027 C8.35749658,14.1873997 8.35434069,14.1938527 8.35466943,14.2005073 C8.35664186,14.2429891 8.34520177,14.2788164 8.32159836,14.3040904 C8.29865244,14.3286923 8.26505539,14.3422704 8.22692176,14.3422704 C8.21942653,14.3422704 8.2117998,14.3417326 8.20410733,14.3406571 C8.1853035,14.3379012 8.16676267,14.3322549 8.1491423,14.323987 C8.17379766,14.3140387 8.19246999,14.2944783 8.20174041,14.2675238 C8.22126746,14.2107917 8.19917625,14.1076118 8.07267779,14.0039614 C8.06932466,14.0012054 8.06524831,13.9997939 8.06097471,13.9997939 C8.05979125,13.9997939 8.05854205,13.9999283 8.05722709,14.0001972 C8.05183579,14.0012727 8.04723345,14.004768 8.04460355,14.0097422 C8.00903407,14.0770947 7.9760945,14.1416914 7.94709979,14.198894 C7.88049743,14.329835 7.86859711,14.4389301 7.9119248,14.5231544 C7.95834264,14.6134284 8.05610938,14.649659 8.10890474,14.6631026 C8.09536073,14.6756052 8.08161947,14.6881078 8.06794396,14.7006776 C8.02836388,14.6951657 7.81836591,14.6641781 7.74900215,14.6526838 C7.68575292,14.6429372 7.64518662,14.54984 7.64479213,14.5489662 C7.64268821,14.543992 7.63848036,14.5400934 7.63341779,14.5384802 C7.63157686,14.5378752 7.62967018,14.5375391 7.62769775,14.5375391 C7.62434462,14.5375391 7.62112298,14.5384802 7.61816434,14.5402278 C7.61724387,14.5407656 7.52151531,14.5982371 7.42414305,14.5982371 C7.41230847,14.5982371 7.40040815,14.5974305 7.38863932,14.5954811 C7.29882804,14.5804915 7.15602416,14.5558897 7.15602416,14.5558897 C7.09612806,14.5451347 7.07863919,14.5063499 7.07357662,14.4813447 C7.08758087,14.4828907 7.1021111,14.4836974 7.11710156,14.4836974 C7.25096376,14.4836974 7.44156617,14.4198401 7.57483664,14.2407709 C7.63624494,14.1575549 7.71777202,14.0315208 7.8171167,13.866097 C7.81994385,13.8613917 7.82066708,13.8557454 7.81908913,13.8505023 C7.81751119,13.8453265 7.81382932,13.8410918 7.80902974,13.8387392 C7.73690458,13.8050629 7.6735896,13.784763 7.60948565,13.7747475 C7.59041883,13.7715882 7.5717465,13.769975 7.55399464,13.769975 C7.44735197,13.769975 7.38752161,13.8272449 7.37437208,13.8855902 C7.37193942,13.873827 7.37154493,13.8609212 7.37338587,13.8473431 C7.38390549,13.7716554 7.4629999,13.690187 7.61185257,13.690187 C7.63657368,13.690187 7.66280699,13.6924725 7.68982927,13.6968416 C7.74354509,13.7050423 7.80094278,13.7233256 7.86530973,13.7524983 C7.86780814,13.753641 7.87037229,13.7541787 7.87293645,13.7541787 C7.87924823,13.7541787 7.88536276,13.750885 7.88884738,13.7449698 L7.93493648,13.6668623 C7.98023661,13.5899648 8.02165762,13.5195202 8.05578065,13.4635274 C8.14335651,13.3196134 8.20522504,13.1148669 8.15394188,13.0022092 C8.13533529,12.9612734 8.10252722,12.9362682 8.05900228,12.9298153 C8.05038934,12.9284037 8.04190789,12.927866 8.03388668,12.927866 C7.95998633,12.927866 7.91179331,12.9825143 7.90784845,13.0353478 C7.90673074,13.0495308 7.90890041,13.0626384 7.91369999,13.0740654 C7.82586114,13.0509424 7.79121213,12.9767336 7.7962747,12.909381 C7.79956208,12.8640087 7.82421745,12.8152755 7.87017505,12.8152755 C7.87392267,12.8152755 7.87780178,12.8156116 7.88174664,12.8162166 C8.02487925,12.8402135 8.50490279,12.9097171 8.6162793,12.9232279 C8.68367063,12.9319663 8.7236452,12.9853375 8.74527617,13.028626 C8.74843206,13.0349445 8.75487533,13.0389776 8.76184458,13.0389776 C8.76342252,13.0393137 8.76526345,13.0394481 8.76723588,13.0394481 C8.77394214,13.0394481 8.78242359,13.0377004 8.78577672,13.0337346 C8.82614577,12.9860097 8.8711829,12.9608029 8.91628579,12.9608029 C8.92075663,12.9608029 8.92516172,12.9610717 8.92943532,12.9616095 C8.97348624,12.9669197 9.01129113,12.9987139 9.02509813,13.0400531 C8.96677998,13.0555805 8.90997401,13.107809 8.92608219,13.2579743 C8.96493904,13.4780466 9.03364533,13.851309 9.09991895,14.1919033 C9.10090517,14.1970119 9.10392956,14.2015828 9.10833465,14.2043387 C9.11135904,14.2062208 9.11471217,14.2072291 9.1181968,14.2072291 C9.11984049,14.2072291 9.12141843,14.2070274 9.12293063,14.2066241 C9.27599114,14.1650833 9.31655743,14.0738011 9.32674832,14.0383771 C9.33187663,14.037436 9.33700495,14.0366294 9.34213327,14.0356211 C9.32950972,14.0980668 9.28552455,14.2202694 9.13364749,14.2820429 C9.12523179,14.2855382 9.12036647,14.2947471 9.12240465,14.3038216 C9.12700698,14.3257347 9.13160932,14.346774 9.13700062,14.3672083 C9.14120847,14.3766188 9.14337814,14.3844161 9.14567931,14.3920118 C9.20820532,14.626872 9.30577482,14.7525028 9.43529767,14.7650726 C9.44489683,14.7659464 9.45403575,14.7664169 9.4625172,14.7664169 C9.51097321,14.7664169 9.5487781,14.7523683 9.57481417,14.7247417 C9.59473571,14.7036352 9.60348014,14.6788317 9.60735925,14.660145 C9.66600615,14.6905948 9.68106236,14.7395969 9.67442185,14.7779112 C9.66633489,14.8247623 9.62202098,14.8751087 9.54404427,14.8751087 Z M11.5562509,14.9990589 C11.4952371,14.9974457 11.1358604,14.9849431 11.0970693,14.9824561 C11.0791202,14.9815822 11.0112029,14.9456877 10.965574,14.8831748 C10.9622209,14.8786712 10.9570926,14.8759153 10.9515698,14.8755792 L10.9505836,14.8755792 C10.9453895,14.8755792 10.9404584,14.8777302 10.9369081,14.881696 C10.8867426,14.9373527 10.8186281,14.9677353 10.7977861,14.9677353 C10.7609016,14.9671303 10.3990266,14.9447467 10.3372896,14.9402431 L10.3094126,14.8966185 C10.4047467,14.8963496 10.7113937,14.860119 10.7344711,14.4123789 L10.749593,14.1375239 C10.7497245,14.1349696 10.7493301,14.1323481 10.7484096,14.129861 C10.7349971,14.0924205 10.7111307,14.0615673 10.6958115,14.0442923 C10.7138263,14.0257401 10.7434128,13.9896439 10.7591922,13.9407763 L10.7956164,13.2804924 C10.7958794,13.2751822 10.7939727,13.2699391 10.7904223,13.2661749 C10.786872,13.2624779 10.7820066,13.2603942 10.7770098,13.2603942 L10.7765496,13.2603942 C10.3969884,13.2691325 10.2620743,13.7005386 10.2419555,13.9387598 L10.1117752,13.9823844 C10.1380085,13.5866039 10.0934316,13.2724934 9.99402114,13.1496186 C10.0133509,13.1250168 10.0326808,13.100415 10.0516161,13.0758131 C10.0924454,13.0828038 10.1919215,13.0896601 10.4346618,13.1063302 C10.5583989,13.1148669 10.8604436,13.1350995 10.9894404,13.1391326 C11.0036419,13.1398048 11.0167257,13.1416869 11.028626,13.1436362 C11.0413811,13.1433674 11.0507172,13.1428968 11.0607766,13.1428968 L11.0734002,13.1431657 C11.2745222,13.1558699 11.929303,13.1722712 12.0129997,13.1722712 C12.0293051,13.1978141 12.0456763,13.223357 12.0623105,13.2489671 C11.9521832,13.3614903 11.879006,13.6699544 11.8688152,14.0666087 L11.8319965,14.0502747 C11.8023443,14.0372344 11.7726921,14.0240596 11.7432372,14.0105488 C11.7446836,13.771521 11.6495468,13.3288895 11.2736017,13.2839877 C11.2728785,13.2839205 11.2721553,13.2839205 11.2714321,13.2839205 C11.267027,13.2839205 11.2626876,13.2854665 11.2593345,13.2884241 C11.2553897,13.2919195 11.2530227,13.2968936 11.2528255,13.3021366 L11.2284989,13.9306264 C11.2335614,13.9972396 11.2676845,14.0483254 11.287343,14.0726583 C11.2678817,14.09074 11.2354681,14.1256935 11.2202804,14.1697214 C11.2159411,14.2640956 11.2127194,14.3521514 11.2094321,14.4347625 C11.2027258,14.6056983 11.2422401,14.7389919 11.3267258,14.8308791 C11.4156824,14.9277405 11.5319242,14.9520735 11.5880727,14.9581231 C11.5774216,14.9717012 11.5667705,14.9852792 11.5562509,14.9990589 Z M13.197838,14.9591314 C13.2520798,14.9538883 13.3680586,14.930967 13.4581987,14.8339712 C13.5436048,14.7422184 13.5834479,14.6085887 13.5767417,14.4367791 C13.5743747,14.3583355 13.5714161,14.2763294 13.5683917,14.1931133 L13.567537,14.169318 C13.5674712,14.1670999 13.5669453,14.1648817 13.5661563,14.1627979 C13.5499166,14.1228031 13.5206589,14.0911433 13.5027098,14.0742044 C13.5202644,14.0525601 13.5494564,14.0097422 13.5587268,13.9540855 L13.5553737,13.8501663 C13.546958,13.6165159 13.5394627,13.4098201 13.5360439,13.3042876 C13.5358466,13.2989774 13.5334797,13.2940032 13.5296006,13.2905079 C13.5261817,13.2875503 13.5218424,13.2859371 13.5173715,13.2859371 C13.5167141,13.2859371 13.5159908,13.2859371 13.5152676,13.2860715 C13.1393883,13.3302338 13.0429365,13.7726637 13.043594,14.0117587 C13.0018443,14.0305126 12.9601603,14.0491992 12.918016,14.067617 C12.9083511,13.6706266 12.8358972,13.362028 12.7262959,13.2495048 L12.7752121,13.1728761 C12.8595006,13.1724056 13.5136239,13.1572815 13.7157322,13.1451823 L13.7276325,13.1449134 C13.7374289,13.1449134 13.7467651,13.1453839 13.7557725,13.1458544 C13.7720122,13.1437035 13.7852274,13.1417541 13.7996262,13.1410819 C13.928623,13.1370489 14.2304047,13.1173539 14.3541418,13.1090189 C14.5968163,13.0927521 14.6963583,13.0860975 14.7371218,13.079174 L14.7941907,13.1529123 C14.6932681,13.2763921 14.6494144,13.5836463 14.6756477,13.9854092 C14.6323201,13.9712261 14.5887951,13.9565726 14.5454674,13.9416502 C14.5254144,13.7034962 14.3907632,13.271754 14.0115966,13.2623435 L14.0111363,13.2623435 C14.0061395,13.2623435 14.0013399,13.26436 13.9977896,13.2681243 C13.9941734,13.2719557 13.9922668,13.2770643 13.9925297,13.2823745 C13.998447,13.3980569 14.0109391,13.6352698 14.0247461,13.8961435 C14.0315838,13.9690079 14.0744513,14.0221775 14.0979232,14.0463088 C14.0795139,14.0668104 14.0488755,14.1066707 14.0389476,14.1539251 C14.0430897,14.2463501 14.0477578,14.3323893 14.0523601,14.4144627 C14.0747143,14.8601862 14.3787314,14.8990383 14.4765639,14.8997777 C14.4668332,14.9147674 14.4574971,14.9290848 14.4482924,14.9430662 C14.3893825,14.9476371 14.0300059,14.9691469 13.9895054,14.9703568 C13.9664937,14.9703568 13.8971299,14.9374871 13.8493971,14.883847 C13.8458468,14.8798812 13.8408499,14.8775957 13.8355901,14.8775957 L13.8347354,14.8775957 C13.8292126,14.8778646 13.8240843,14.8806206 13.8207969,14.8851914 C13.7735901,14.9487798 13.7067905,14.983666 13.6887099,14.9844726 C13.6514967,14.9868252 13.2915284,14.9989245 13.2296599,15 C13.218943,14.9864219 13.2083576,14.9727766 13.197838,14.9591314 Z" id="Fill-1"></path>
        </g>
    </g>
</svg>