
<svg width="380px" height="223px" viewBox="0 0 380 223" version="1.1" xmlns="http://www.w3.org/2000/svg" xmlns:xlink="http://www.w3.org/1999/xlink">
    <!-- Generator: Sketch 50.2 (55047) - http://www.bohemiancoding.com/sketch -->
    <desc>Created with Sketch.</desc>
    <defs></defs>
    <g id="Page-1" stroke="none" stroke-width="1" fill="none" fill-rule="evenodd">
        <g id="Artboard-1" fill="#FFFFFF">
            <path d="M203.8584,79.2282 C203.3714,80.5852 203.5364,81.7702 203.9074,82.3112 C204.0694,82.5472 204.2824,82.6782 204.5064,82.6782 C204.8194,82.6782 205.2394,82.4452 205.4694,81.3382 L205.4754,46.6882 C205.4754,46.5852 205.4204,46.4912 205.3314,46.4412 C205.2884,46.4162 205.2404,46.4042 205.1924,46.4042 C205.1414,46.4042 205.0894,46.4182 205.0454,46.4462 C204.3534,46.8672 203.6034,47.0802 202.8144,47.0802 C201.3094,47.0802 199.6964,46.2612 198.7044,44.9942 C198.2184,44.3742 197.9564,43.7322 197.9504,43.1742 C198.4414,43.4342 198.9834,43.5692 199.5424,43.5692 C201.7894,43.5692 204.6024,41.3532 205.4714,36.4892 L205.4754,23.6452 C205.4764,13.8982 198.5544,7.1972 192.0414,5.8402 C192.0224,5.8362 192.0034,5.8342 191.9834,5.8342 C191.9644,5.8342 191.9454,5.8362 191.9264,5.8402 C189.4984,6.3342 186.9884,7.6112 184.8594,9.4362 C182.0284,13.1542 181.2544,18.6012 183.0154,22.1492 C183.8974,23.9272 185.7854,26.0462 189.7654,26.0462 C192.9974,26.0452 194.4194,24.6352 194.4254,23.2372 C194.4284,22.5612 194.1014,22.0012 193.6034,21.7372 L193.8554,21.5562 C196.0564,21.6392 197.0474,23.7222 197.0354,25.6472 C197.0174,28.5922 194.9344,31.7622 190.4044,31.7622 C186.2824,31.7602 183.8004,29.2882 182.4384,27.2132 C182.3844,27.1322 182.2944,27.0852 182.2014,27.0852 C182.1674,27.0852 182.1314,27.0922 182.0984,27.1052 C181.9744,27.1532 181.9004,27.2822 181.9214,27.4142 C185.1264,47.5432 199.3884,71.9442 203.6844,78.9442 C203.7594,79.0672 203.8184,79.1622 203.8584,79.2282 Z M186.3594,105.6742 C183.7994,105.7072 182.6674,107.7032 182.6794,109.6672 C182.6984,112.6832 185.2544,115.8872 189.9514,115.8872 C195.0734,115.8822 201.2804,113.5362 202.0164,102.3842 C202.0064,101.9252 202.0014,101.4672 202.0014,100.9572 C202.0014,88.4642 196.8474,87.4542 195.2684,87.4412 C194.1764,87.4412 193.5334,88.2892 193.5304,89.1082 C193.5304,89.2342 193.5454,89.3532 193.5744,89.4622 C192.6464,89.0582 192.2234,88.0752 192.2264,87.1012 C192.2314,85.3952 193.4494,83.6692 195.7694,83.6692 C196.7884,83.6802 197.7114,83.9322 198.5504,84.4162 C198.5944,84.4422 198.6434,84.4552 198.6924,84.4552 C198.7554,84.4552 198.8194,84.4332 198.8714,84.3912 C198.9624,84.3162 198.9994,84.1932 198.9614,84.0822 C196.9744,78.1092 194.3024,71.9552 191.4734,65.4392 C185.4604,51.5892 179.2424,37.2672 179.0724,23.2492 C179.0704,23.0942 178.9454,22.9702 178.7904,22.9692 L178.7894,22.9692 C178.6344,22.9692 178.5084,23.0922 178.5054,23.2472 C178.5054,23.2472 178.4904,23.4892 178.4904,23.5492 L178.4904,108.5842 C178.4904,108.6982 178.4984,108.8072 178.5054,108.9172 L178.5134,109.0402 C178.5904,109.5502 178.9174,109.7212 179.1734,109.7212 C179.6204,109.7212 180.1014,109.2392 180.1014,108.4592 C180.1014,108.2462 180.1624,103.2182 185.3644,103.1602 C187.8454,103.1602 189.1684,105.1132 189.1704,106.9502 C189.1704,107.6562 188.9514,108.4452 188.3844,108.8572 C188.4634,108.6172 188.5074,108.3372 188.5074,108.0312 C188.5054,106.8582 187.8454,105.6742 186.3774,105.6742 L186.3594,105.6742 Z M208.4394,124.7002 C207.5074,124.5452 204.6144,124.4032 195.6354,124.3452 C193.5794,124.3212 192.1824,123.0362 191.3744,121.9612 C191.3204,121.8912 191.2364,121.8492 191.1474,121.8492 C191.0584,121.8492 190.9754,121.8902 190.9214,121.9612 C190.1114,123.0292 188.7144,124.3032 186.6594,124.3142 L186.5414,124.3142 C186.4404,124.3142 177.4164,124.3542 175.5074,124.5422 L174.7524,123.7972 C175.6084,123.5822 175.9764,122.9682 176.0284,122.3972 C176.1214,121.3572 175.2254,120.0432 173.3814,119.6552 C170.6884,119.0802 163.7114,114.0202 159.2304,102.0492 C160.1574,101.3842 163.5264,98.4222 163.5264,90.4942 L163.5264,28.4132 C163.5264,24.8852 162.4454,23.6942 162.0304,23.3672 C162.1784,14.5882 175.5934,4.1432 176.7284,3.5292 C177.5404,3.0592 177.5244,2.4862 177.4444,2.1862 C177.2804,1.5762 176.6134,1.0852 175.9544,0.8982 L176.6514,0.1722 C177.5194,0.1442 183.4994,0.0002 187.9034,0.0002 C188.4564,0.0002 189.3904,0.4432 190.1414,0.8002 C190.6624,1.0472 191.1114,1.2602 191.4114,1.3312 C191.4324,1.3352 191.4554,1.3382 191.4764,1.3382 C191.4984,1.3382 191.5184,1.3362 191.5404,1.3312 C191.8394,1.2622 192.2884,1.0532 192.8074,0.8102 C193.5554,0.4602 194.4864,0.0252 194.9964,0.0252 C199.4164,0.0552 206.3684,0.2472 207.3144,0.2812 L208.0184,1.0202 C207.3404,1.2072 206.6864,1.6892 206.5234,2.2882 C206.4424,2.5882 206.4254,3.1622 207.2294,3.6332 C208.3714,4.2592 221.7914,14.8042 221.9334,23.5872 C221.4154,23.9782 220.4374,25.2722 220.4364,28.6162 C220.4374,32.7642 220.4374,81.7102 220.4364,90.6972 C220.4374,98.6462 223.8234,101.6262 224.7354,102.2852 C220.2694,114.2082 213.2814,119.2302 210.5854,119.7872 C208.7514,120.1612 207.8514,121.4632 207.9374,122.5002 C207.9854,123.0772 208.3524,123.6982 209.2144,123.9202 L208.4254,124.6922 L208.4394,124.7002 Z M261.8244,13.2252 C261.7304,13.2252 252.4254,13.4602 252.3894,14.0652 L252.3894,76.9162 C252.3894,77.0542 252.4894,77.1722 252.6254,77.1952 C252.6414,77.1982 252.6574,77.2002 252.6724,77.2002 C252.7914,77.2002 252.8994,77.1252 252.9404,77.0102 C256.4614,67.0252 266.1924,58.5742 269.0904,56.2222 C272.3504,53.5702 274.0884,51.0132 273.8584,49.2072 C273.7744,48.5452 273.4164,48.0142 272.8414,47.6922 L272.8414,23.6702 C272.8414,17.8572 270.1434,14.1282 265.4394,13.4372 C264.5274,13.2962 263.3094,13.2252 261.8244,13.2252 Z M290.2574,134.0782 C285.1114,133.0632 279.8824,132.1152 274.7124,131.2592 C260.9104,118.6622 262.5324,96.0022 265.6714,84.5842 C265.7034,84.4702 265.6614,84.3502 265.5654,84.2802 C265.5614,84.2762 264.8344,83.6802 265.0984,81.8122 C268.4604,81.7452 271.0144,77.4902 271.5504,73.3762 C271.9594,70.2412 271.2444,66.5862 268.0124,65.7292 C267.9894,65.7232 267.9644,65.7202 267.9404,65.7202 C267.8894,65.7202 267.8394,65.7332 267.7954,65.7602 C257.6714,71.8082 253.0634,84.1792 253.0674,93.1142 C253.0674,99.1682 255.7354,100.7832 257.3114,100.7832 C257.8444,100.7832 258.3114,100.6142 258.6094,100.3162 C258.8804,101.4422 258.7334,102.4832 258.1744,103.3032 C257.5524,104.2172 256.4684,104.7622 255.2764,104.7622 C254.4324,104.7622 253.5874,104.4922 252.8324,103.9812 C252.7844,103.9492 252.7284,103.9332 252.6724,103.9332 C252.6274,103.9332 252.5824,103.9442 252.5404,103.9662 C252.4474,104.0152 252.3894,104.1112 252.3894,104.2162 L252.3894,115.7062 C252.3904,122.8182 257.6314,127.0652 259.2564,128.2102 L258.5434,128.8432 C254.6094,128.3192 250.6294,127.8352 246.7104,127.4052 L245.4924,126.0332 C245.4374,125.9712 245.3594,125.9382 245.2804,125.9382 C245.2464,125.9382 245.2124,125.9442 245.1794,125.9572 C245.1444,125.9692 245.1134,125.9902 245.0874,126.0142 C245.0434,126.0512 244.0924,126.8322 241.7794,126.8322 C241.4254,126.8322 241.0424,126.8132 240.6254,126.7722 C237.5794,126.4392 228.0964,125.6742 226.8594,125.6052 L226.2934,124.9902 C229.0874,124.5532 237.4864,121.7962 237.4834,104.3802 L237.4834,18.3802 C237.4844,7.9932 232.2874,2.6802 227.2374,1.9572 L227.8544,1.3742 C234.4744,1.8572 241.1694,2.4772 247.7594,3.2162 C247.7544,3.5962 247.8254,4.2722 248.2984,4.9362 C248.9754,5.8832 250.2084,6.4692 251.9624,6.6772 C252.3464,6.7232 252.7544,6.7452 253.2094,6.7452 C254.7834,6.7452 256.5854,6.4732 258.6714,6.1582 C261.2954,5.7612 264.2674,5.3122 267.5214,5.3122 C269.2664,5.3122 270.8994,5.4382 272.5134,5.6992 C282.4344,7.3192 287.6294,14.4112 287.6324,20.5792 L287.6324,55.2832 C287.6334,58.7892 289.3164,60.9712 289.8544,61.5802 L289.2434,62.7182 C286.7984,62.2532 284.4064,62.0172 282.1304,62.0172 C279.6724,62.0172 277.2854,62.2922 275.0344,62.8352 C274.9104,62.8652 274.8214,62.9752 274.8174,63.1032 C274.8134,63.2302 274.8964,63.3452 275.0184,63.3822 C281.4064,65.3152 284.4674,73.6112 283.3374,78.0472 C283.3124,78.1422 283.3384,78.2432 283.4074,78.3132 C283.4614,78.3702 283.5354,78.4012 283.6114,78.4012 C283.6304,78.4012 283.6504,78.3982 283.6714,78.3952 C283.9414,78.3362 284.2294,78.3072 284.5264,78.3072 C286.2184,78.3072 288.1834,79.2542 289.6524,80.7772 C290.7764,81.9422 291.4424,83.2932 291.5234,84.5432 C291.2324,84.4632 290.9214,84.4222 290.5924,84.4222 C286.1714,84.4222 279.1554,91.4412 279.1534,110.2752 C279.1564,125.3832 287.2604,132.3092 290.8814,133.5592 L290.2574,134.0782 Z M77.5014,135.9402 C79.4234,133.3582 81.3284,126.3782 81.9814,119.4272 C82.3834,115.1372 83.5534,95.7762 84.7924,75.2782 C85.6264,61.4682 86.4884,47.1882 87.1464,37.0402 C88.1374,21.7172 85.7964,15.7802 83.6564,13.4992 C82.8674,12.6562 82.1254,12.3412 81.6514,12.2242 L82.2854,11.4402 C83.1634,11.2442 90.6164,9.7062 93.0154,9.2722 C93.2014,9.2362 93.3934,9.2212 93.5904,9.2212 C95.0484,9.2212 96.8494,10.1002 97.7934,10.6242 C97.8364,10.6472 97.8834,10.6592 97.9304,10.6592 C98.0064,10.6592 98.0834,10.6282 98.1374,10.5692 C99.7344,8.8562 101.0634,7.8672 101.9804,7.7082 C104.1744,7.3002 112.2864,6.0182 113.3534,5.8662 L113.8344,6.2812 C111.6614,6.7422 109.9034,7.8952 108.6004,9.7132 C106.1474,13.1382 105.4684,18.7472 106.6904,25.5062 C107.6394,30.7582 110.8064,46.4632 115.8514,70.9242 C115.8794,71.0562 115.9944,71.1502 116.1294,71.1502 C116.2654,71.1502 116.3804,71.0542 116.4074,70.9212 L116.4474,70.7132 C118.9794,57.6922 124.2494,30.5982 125.5854,22.8532 C126.7854,15.9052 126.1534,10.5432 123.8064,7.7572 C122.6034,6.3282 120.9874,5.6042 119.0024,5.6042 C118.8294,5.6042 118.6524,5.6092 118.4724,5.6212 L118.9624,5.0562 C119.9214,4.9122 128.1604,3.8322 130.3984,3.6002 C130.4714,3.5912 130.5424,3.5872 130.6144,3.5872 C131.5104,3.5872 132.7584,4.1892 134.2244,5.3272 C134.2754,5.3662 134.3374,5.3862 134.3984,5.3862 C134.4624,5.3862 134.5284,5.3642 134.5814,5.3202 C135.7324,4.3532 137.8954,2.7102 139.4364,2.5602 C141.8344,2.2992 149.2824,1.6732 150.2774,1.6032 L150.8874,2.1712 C150.5184,2.3532 149.9914,2.6982 149.4054,3.3252 C147.3844,5.4832 144.1664,11.6292 145.2964,28.5492 C146.9064,52.5932 150.9184,102.1712 151.6214,109.3492 C152.2834,116.0962 154.2154,122.5182 156.1754,124.5842 L155.4124,125.4032 C154.6484,125.4532 150.7824,125.7282 149.1344,125.8662 C149.0014,125.8762 148.8724,125.8812 148.7474,125.8812 C147.2494,125.8812 146.4824,125.1532 146.4754,125.1452 C146.4214,125.0932 146.3504,125.0652 146.2764,125.0652 C146.2684,125.0652 146.2594,125.0652 146.2514,125.0662 C146.1684,125.0742 146.0924,125.1172 146.0454,125.1842 C146.0374,125.1952 145.2734,126.2542 144.0554,126.3632 C139.1914,126.7542 137.4114,126.9392 136.7594,127.0932 C136.1464,126.8272 135.5324,126.5632 134.9184,126.2992 C136.5254,125.0372 141.6174,120.0932 140.7984,108.6132 C140.6444,106.4592 140.4014,102.2842 140.0934,96.9982 C139.2964,83.3402 137.9644,60.4832 136.3584,41.3932 C136.3464,41.2532 136.2354,41.1442 136.0944,41.1342 C136.0884,41.1342 136.0824,41.1332 136.0764,41.1332 C135.9444,41.1332 135.8284,41.2252 135.7994,41.3562 C133.4244,52.1152 122.5044,102.1242 120.7904,110.9642 C119.0014,120.1312 120.9064,126.5472 123.8584,127.8162 L123.0454,128.7442 C121.1714,128.9882 119.3004,129.2442 117.4314,129.5092 C116.5364,129.6362 115.6404,129.7652 114.7464,129.8972 C112.8844,130.1702 111.0244,130.4562 109.1664,130.7492 L108.4024,130.0962 C111.3514,128.0582 113.2664,121.0822 111.4714,112.3872 C109.7904,104.2252 99.0984,58.0912 96.5434,47.1092 C96.5124,46.9802 96.3974,46.8902 96.2664,46.8902 C96.2664,46.8902 96.2534,46.8902 96.2464,46.8912 C96.1064,46.9012 95.9954,47.0112 95.9844,47.1502 C94.4794,65.6232 93.7344,87.0552 93.2424,101.2372 C93.0144,107.7692 92.8364,112.9282 92.6614,115.4412 C91.8354,127.3612 97.0704,130.7942 98.5964,131.5372 L97.6814,132.6322 C96.6084,132.8122 90.2834,134.0192 89.3594,134.2142 C89.2134,134.2442 89.0704,134.2562 88.9354,134.2562 C88.0114,134.2562 87.4684,133.6412 87.4634,133.6352 C87.4094,133.5732 87.3314,133.5382 87.2494,133.5382 L87.2414,133.5382 C87.1574,133.5402 87.0774,133.5812 87.0254,133.6472 C87.0164,133.6592 86.1084,134.7982 84.3474,135.1662 C80.3924,135.9762 78.8154,136.2992 78.2024,136.5022 L77.5014,135.9402 Z M6.1384,157.7002 C2.8154,157.7002 0.5524,156.2722 0.0854,153.8792 C-0.3056,151.8802 0.6884,149.8502 2.3984,149.1552 C2.6304,149.0642 2.8564,149.0182 3.0644,149.0182 C4.0584,149.0182 4.5494,150.0922 4.7194,150.5712 C3.7164,151.1042 3.1514,152.3672 3.3874,153.6252 C3.5944,154.7322 4.5254,155.9152 6.5134,155.9152 C7.3214,155.9152 8.2474,155.7202 9.2634,155.3372 C18.8634,151.8022 22.0244,138.5702 21.1994,133.9402 C20.9614,132.6042 20.4334,132.3052 20.0244,132.2952 L19.9564,131.8992 C20.7274,130.8152 21.9224,130.3292 22.7854,130.3292 C23.2564,130.3292 23.5884,130.4762 23.6504,130.7122 L24.1984,130.5672 L24.2014,130.7012 C24.2984,130.2802 33.5474,93.3572 41.0014,63.9832 C41.0234,63.8972 41.0034,63.8052 40.9474,63.7362 C40.8934,63.6692 40.8124,63.6302 40.7264,63.6302 C40.7264,63.6302 40.5054,63.6362 40.3684,63.6362 C38.8474,63.6362 37.7854,63.3272 37.4304,62.7972 C40.1454,61.5732 43.1394,55.1282 44.7564,49.1762 L45.1664,47.5622 C45.8584,44.6162 46.2224,41.7852 46.2224,39.3712 C46.2234,36.6512 45.4834,34.1712 44.1394,32.3882 C42.7434,30.5352 40.7434,29.5142 38.5074,29.5142 C37.6674,29.5142 36.7874,29.6562 35.8934,29.9352 C29.5734,31.9552 27.4014,37.0692 28.0524,41.2432 C28.5184,44.2302 30.3994,46.2382 32.7324,46.2382 C33.2044,46.2382 33.6934,46.1572 34.1844,45.9982 C36.9134,45.1372 38.2094,42.5942 38.6414,41.5182 L38.9414,41.7972 C40.0634,47.9132 38.0734,52.9782 35.8274,55.6872 C34.5054,57.2802 33.0054,58.1942 31.7124,58.1942 C31.1704,58.1952 30.6754,58.0332 30.2454,57.7142 C30.1944,57.6772 30.1354,57.6582 30.0764,57.6582 C30.0204,57.6582 29.9644,57.6752 29.9174,57.7072 C29.8174,57.7752 29.7714,57.8972 29.8014,58.0142 C33.0584,70.4022 28.0324,89.6132 18.2324,93.0412 C17.3854,93.3412 16.5994,93.4932 15.8954,93.4932 C13.5454,93.4932 12.7054,91.8232 12.5224,91.3752 L12.7744,90.8912 C13.1314,91.2312 13.7434,91.4542 14.4104,91.4542 C15.4664,91.4542 20.7364,90.7282 20.7404,76.3862 C20.7394,68.1162 18.2514,67.4742 17.4884,67.4742 C17.1304,67.4742 16.7924,67.6022 16.5354,67.8332 C16.5064,67.8592 16.4794,67.8862 16.4544,67.9132 C16.3374,67.2532 16.4944,66.5052 16.9164,65.8092 C17.4104,64.9922 18.1744,64.4432 18.8174,64.4432 C19.0164,64.4432 19.2044,64.4952 19.3754,64.5962 C19.4204,64.6222 19.4694,64.6352 19.5194,64.6352 C19.5754,64.6352 19.6304,64.6192 19.6784,64.5862 C19.7694,64.5242 19.8164,64.4152 19.7994,64.3072 C16.8204,45.7882 6.1654,35.2752 4.1264,33.4782 L4.8944,32.2622 C14.9874,29.0952 25.3314,26.2122 35.6424,23.6932 C37.0994,23.2372 38.5264,23.0082 39.9034,23.0082 C41.0054,23.0082 42.0694,23.1562 43.0634,23.4482 C45.0894,24.0402 48.6794,25.2682 49.9564,26.8342 C50.0104,26.9002 50.0914,26.9382 50.1754,26.9382 C50.1944,26.9382 50.2124,26.9362 50.2304,26.9332 C50.3334,26.9132 50.4174,26.8372 50.4474,26.7372 C51.9184,21.8802 54.5834,18.2862 57.2384,17.5812 C60.1384,16.7762 68.6294,14.6722 69.7344,14.4182 L70.2754,14.8382 C69.1634,15.6572 66.4694,18.5182 64.6304,25.4712 C62.8684,32.0302 48.4554,87.7892 42.0394,113.1452 C42.0134,113.2432 42.0434,113.3462 42.1154,113.4162 C42.1694,113.4692 42.2404,113.4982 42.3134,113.4982 C42.3384,113.4982 42.3634,113.4952 42.3884,113.4882 C42.6294,113.4132 42.8324,113.3822 43.0304,113.3822 C43.7044,113.3822 44.3454,113.7472 44.7914,114.3812 C45.2964,115.1022 45.4694,116.0272 45.2704,116.8622 C45.1824,116.8402 45.0874,116.8292 44.9844,116.8292 C43.5864,116.8292 40.8674,118.8642 39.4744,123.2312 L39.1974,124.3212 C39.1894,124.3672 39.0774,125.2952 38.7394,126.7982 C38.6164,127.8392 38.5614,128.7372 38.5614,129.6532 C38.5614,135.5452 40.8864,139.2072 44.6294,139.2072 C45.2054,139.2072 45.8084,139.1162 46.4234,138.9382 C51.6424,137.4542 53.3774,132.1662 52.7804,127.8812 C52.4274,125.3562 51.3154,123.7242 49.9464,123.7242 C49.7874,123.7242 49.6264,123.7472 49.4654,123.7912 C48.8794,123.9572 48.4854,124.1992 48.2274,124.4162 C48.2464,123.9212 48.4904,123.2672 48.9254,122.5822 C49.9824,120.9222 52.0404,119.2482 54.2554,119.2482 C54.7084,119.2482 55.1564,119.3192 55.5864,119.4602 C55.6154,119.4702 55.6454,119.4742 55.6744,119.4742 C55.7504,119.4742 55.8234,119.4452 55.8774,119.3892 C55.9304,119.3352 55.9604,119.2492 55.9584,119.1732 C55.9434,118.4282 55.6354,100.7732 59.5654,86.6712 C64.1394,82.4722 72.7724,75.1822 73.5344,74.5542 L73.8274,74.5212 C72.4844,78.6292 62.4404,111.3092 73.5654,136.6722 L72.6434,137.8212 C68.2334,138.8492 63.7764,139.9512 59.3904,141.0952 C59.0184,140.4082 58.1794,138.9382 57.6944,138.7072 C57.6554,138.6892 57.6134,138.6802 57.5724,138.6802 C57.5104,138.6802 57.4494,138.7002 57.3984,138.7402 C57.3724,138.7602 57.3494,138.7852 57.3324,138.8122 C57.2644,138.9112 54.8154,142.3832 49.9154,143.7582 C48.2524,144.2272 46.6614,144.4642 45.1864,144.4642 C40.4574,144.4642 36.9344,142.0242 35.2684,137.5912 C35.2284,137.4872 35.1314,137.4152 35.0204,137.4082 L35.0084,137.4082 C34.8984,137.4082 34.8004,137.4652 34.7524,137.5592 C31.5364,143.6872 25.2294,151.8852 13.4434,156.1432 C10.6594,157.1762 8.2024,157.7002 6.1384,157.7002 Z M325.3914,55.7942 C325.2554,55.7942 325.1384,55.8912 325.1134,56.0242 C322.8494,67.8912 320.8614,78.5032 319.2034,87.5662 C319.1904,87.6362 319.2054,87.7072 319.2424,87.7682 C320.0504,89.0582 320.8514,90.3722 321.6564,91.6912 C325.4844,97.9702 329.4424,104.4632 334.8124,109.3212 C334.8664,109.3702 334.9344,109.3942 335.0034,109.3942 C335.0494,109.3942 335.0964,109.3822 335.1394,109.3592 C335.2454,109.3012 335.3024,109.1822 335.2824,109.0632 C332.1164,90.7512 327.5054,65.8732 325.6704,56.0262 C325.6454,55.8922 325.5284,55.7942 325.3924,55.7942 L325.3914,55.7942 Z M370.5684,157.9912 C368.9684,157.9912 367.2724,157.6702 365.5244,157.0412 C357.4664,154.1552 351.6094,150.7802 348.1144,147.0082 C348.0584,146.9482 347.9824,146.9172 347.9064,146.9172 C347.8404,146.9172 347.7744,146.9402 347.7204,146.9872 C347.7094,146.9972 346.4984,148.0322 345.3364,148.0322 C345.1594,148.0322 344.9914,148.0072 344.8374,147.9582 C344.2114,147.7462 334.6014,144.8252 333.1824,144.4582 L332.4004,143.4182 C333.2814,143.3812 334.7724,143.0642 336.0734,141.5552 C338.5064,138.7322 339.1274,133.1772 337.9164,125.0442 C337.6114,122.9992 337.1894,120.3492 336.6604,117.1692 C336.6464,117.0872 336.5974,117.0152 336.5254,116.9732 C331.3084,113.8692 328.3674,110.1902 328.3394,110.1552 L328.3904,110.3772 L327.8294,110.3272 C327.8884,116.1432 326.4134,118.8682 325.1654,120.1282 C324.3024,120.9992 323.2684,121.4602 322.1724,121.4602 C320.9784,121.4602 319.8284,120.8962 319.1084,119.9882 C320.8714,119.8812 321.6264,117.6682 321.6274,112.6482 C321.6264,108.8962 320.2634,103.4772 317.8884,97.7812 C317.8434,97.6742 317.7404,97.6062 317.6274,97.6062 C317.6174,97.6062 317.6064,97.6072 317.5954,97.6082 C317.4704,97.6222 317.3704,97.7162 317.3474,97.8402 C316.0414,105.1892 315.0514,111.0282 314.4094,115.1942 C311.5084,133.9802 319.1944,139.4382 321.6024,140.6632 L320.9824,141.1452 C320.4104,140.9422 319.0154,140.5932 315.6734,139.7582 C314.3624,139.4302 309.9974,138.3432 308.8794,138.1052 C307.2924,137.7322 306.5294,136.5462 306.5214,136.5352 C306.4684,136.4512 306.3764,136.4022 306.2804,136.4022 C306.2484,136.4022 306.2154,136.4082 306.1844,136.4182 C306.1754,136.4222 305.2904,136.7382 304.0374,136.7382 C303.5024,136.7382 302.9724,136.6802 302.4644,136.5682 C301.0754,136.2502 295.8384,135.1272 294.8554,134.9372 L294.1394,134.0522 C298.3674,133.1002 300.6344,129.6952 302.4124,121.7522 C303.2434,118.0402 306.3744,101.2152 309.6334,83.5882 C309.6494,83.5072 309.6294,83.4242 309.5784,83.3602 C305.4684,78.1752 301.0624,74.9642 296.8364,74.0752 C296.2284,73.9472 295.6444,73.8832 295.0974,73.8832 C293.3774,73.8832 292.3724,74.5082 291.9034,74.9112 L291.5894,74.2032 C291.9744,73.5082 293.8404,70.5882 298.0844,70.5882 C298.8004,70.5882 299.5574,70.6742 300.3354,70.8422 C304.0204,71.6462 307.3494,73.4772 310.5114,76.4382 C310.5644,76.4882 310.6334,76.5152 310.7054,76.5152 C310.7344,76.5152 310.7644,76.5102 310.7944,76.5002 C310.8914,76.4682 310.9644,76.3852 310.9834,76.2832 L311.6404,72.7292 C314.5604,56.9152 317.0834,43.2572 317.7634,39.9502 C319.4364,31.8302 316.0904,17.9072 308.2174,16.0462 C307.6054,15.9052 307.0394,15.8332 306.5334,15.8332 C304.9324,15.8332 303.8964,16.5562 303.7604,17.7662 C303.6294,18.9302 304.4794,20.4042 306.0874,20.9522 C305.9034,21.1482 305.5904,21.3732 305.1234,21.3732 C305.0014,21.3732 304.8734,21.3582 304.7404,21.3282 C300.7464,20.4402 299.1974,17.5872 299.4464,15.3122 C299.6344,13.5982 300.7904,12.4912 302.3894,12.4912 C302.6724,12.4912 302.9724,12.5252 303.2794,12.5922 C310.5254,14.2172 317.8304,16.0222 324.9874,17.9562 L324.9764,17.9412 C325.0044,17.9572 325.0324,17.9682 325.0584,17.9752 C325.2434,18.0242 325.8484,18.1872 327.5074,18.6442 C328.9874,19.0492 331.5464,22.4552 333.1024,27.2492 C333.1334,27.3462 333.2154,27.4182 333.3154,27.4392 C333.3344,27.4432 333.3534,27.4452 333.3724,27.4452 C333.4534,27.4452 333.5324,27.4102 333.5864,27.3472 C335.0254,25.6872 337.6524,23.7082 341.9964,23.7082 C343.8154,23.7082 345.8184,24.0542 347.9514,24.7342 C356.4994,27.5052 358.7074,29.8942 359.0624,30.3442 C359.1174,30.4132 359.2154,30.4722 359.3024,30.4722 L359.3054,30.4722 C359.4014,30.4702 359.4914,30.4202 359.5424,30.3382 L360.9994,28.0142 C367.1844,29.4782 373.4094,31.0832 379.5044,32.7842 L380.2424,33.9792 C378.0054,35.7652 365.7024,46.7422 362.8094,65.1172 C362.7934,65.2262 362.8404,65.3342 362.9314,65.3962 C362.9794,65.4282 363.0354,65.4442 363.0894,65.4442 C363.1404,65.4442 363.1914,65.4302 363.2374,65.4032 C363.4034,65.3022 363.5864,65.2502 363.7804,65.2502 C364.3994,65.2502 365.1164,65.7672 365.6044,66.5652 C366.0364,67.2712 366.2004,68.0322 366.0854,68.7062 C366.0634,68.6832 366.0404,68.6612 366.0164,68.6392 C365.7644,68.4062 365.4314,68.2782 365.0804,68.2782 C364.3314,68.2782 361.8894,68.9212 361.8884,77.1982 C361.8914,91.5252 367.0464,92.2502 368.0804,92.2502 C368.7344,92.2492 369.3344,92.0282 369.6874,91.6882 L369.9294,92.1652 C369.7504,92.6112 368.9204,94.2922 366.6224,94.2922 C365.9374,94.2922 365.1734,94.1432 364.3524,93.8482 C354.7624,90.4422 349.8474,71.2402 353.0354,58.8422 C353.0654,58.7252 353.0184,58.6022 352.9184,58.5362 C352.8704,58.5042 352.8154,58.4882 352.7604,58.4882 C352.7004,58.4882 352.6394,58.5072 352.5894,58.5452 C352.1684,58.8652 351.6864,59.0262 351.1564,59.0262 C349.9264,59.0262 348.4944,58.1532 347.2274,56.6312 C344.9764,53.9292 342.9784,48.8392 344.0924,42.6342 L344.3664,42.3742 C344.4174,42.4992 344.4824,42.6492 344.5684,42.8332 C345.1124,44.0012 346.3794,46.0742 348.7394,46.8332 C349.2174,46.9902 349.6954,47.0712 350.1574,47.0712 C352.4274,47.0712 354.2684,45.0822 354.7384,42.1212 C355.3814,38.0652 353.2574,32.7852 347.0744,30.7722 C346.1984,30.4942 345.3384,30.3532 344.5154,30.3532 C342.3244,30.3532 340.3634,31.3742 338.9954,33.2302 C337.6794,35.0132 336.9554,37.4932 336.9564,40.2132 C336.9564,49.7122 338.3164,54.5212 341.3564,55.7022 C340.9424,56.4952 339.6704,56.5872 339.1074,56.5872 C339.0634,56.5872 339.0244,56.5862 338.9904,56.5862 L338.8164,56.2862 C338.7644,56.1972 338.6704,56.1452 338.5714,56.1452 C338.5394,56.1452 338.5054,56.1502 338.4734,56.1622 C338.3444,56.2092 338.2674,56.3432 338.2924,56.4782 C341.7134,75.5022 346.3844,100.6572 349.3454,116.4172 C349.3694,116.5442 349.4764,116.6392 349.6064,116.6482 C349.8464,116.6632 350.0834,116.6702 350.3154,116.6702 C353.9564,116.6692 357.0554,114.8112 358.8864,111.5502 L359.2664,112.1052 C360.5504,113.9762 361.8784,115.9092 362.8054,117.8242 C359.7894,120.2022 356.0964,121.4072 351.8264,121.4072 C351.4364,121.4072 351.0404,121.3962 350.6364,121.3752 L350.6224,121.3752 C350.5404,121.3752 350.4624,121.4112 350.4084,121.4722 C350.3514,121.5382 350.3274,121.6252 350.3434,121.7112 C351.4454,127.5392 352.1854,131.3732 352.4834,132.8002 C355.0304,145.0832 360.0854,152.4412 367.9334,155.2922 C368.9534,155.6682 369.9024,155.8602 370.7534,155.8602 C373.2084,155.8602 374.3734,154.2832 374.6244,152.9332 C374.8444,151.7452 374.4454,150.6742 373.6444,150.2412 C373.7314,149.5422 374.3374,149.4322 374.7094,149.4322 C375.4034,149.4322 376.2184,149.8012 376.8374,150.3962 C377.3614,150.8982 377.9844,151.7822 377.9834,153.1372 C377.9814,155.1722 375.4044,157.9912 370.5694,157.9912 L370.5684,157.9912 Z M285.5344,188.3062 C285.3094,188.3062 285.0674,188.3342 284.8144,188.3892 C283.2184,188.7462 280.9654,190.6442 281.7084,194.2242 C282.3604,197.4332 285.6444,198.7382 288.8204,199.9992 C291.7624,201.1682 294.5424,202.2722 295.1394,204.7532 C295.1844,204.9732 295.2134,205.1832 295.2334,205.3932 C295.2454,205.5222 295.3424,205.6252 295.4694,205.6472 C295.4854,205.6492 295.5014,205.6502 295.5154,205.6502 C295.6274,205.6502 295.7294,205.5852 295.7754,205.4812 C295.9384,205.1112 296.0834,204.7522 296.2064,204.3632 C296.5154,201.9572 296.0984,198.6212 294.7404,197.0792 C294.2624,196.5372 293.7124,196.2622 293.1014,196.2622 C292.9404,196.2622 292.7754,196.2832 292.6094,196.3212 C292.0974,196.4342 291.7214,196.7442 291.5834,197.1692 C291.5814,197.1762 291.5794,197.1832 291.5764,197.1912 C291.4154,196.9782 291.3384,196.7062 291.3654,196.4022 C291.4204,195.7912 291.9484,194.9702 293.2594,194.6632 C293.4344,194.6222 293.6414,194.6002 293.8604,194.6002 C294.2384,194.6002 294.6354,194.6622 295.0114,194.7772 C295.0404,194.7862 295.0674,194.7902 295.0954,194.7902 C295.1714,194.7902 295.2454,194.7592 295.2994,194.7032 C295.3744,194.6262 295.3984,194.5142 295.3634,194.4132 C294.2774,191.3062 291.9624,188.8492 289.1714,187.8402 C289.1394,187.8292 289.1074,187.8242 289.0754,187.8242 C288.9884,187.8242 288.9044,187.8642 288.8494,187.9352 C288.7744,188.0342 288.7724,188.1692 288.8434,188.2712 C289.2804,188.8882 289.3924,189.6392 289.1444,190.2792 C288.8774,190.9692 288.2094,191.4632 287.2644,191.6692 C286.9544,191.7392 286.6704,191.7742 286.4194,191.7742 C286.0014,191.7742 285.7274,191.6782 285.5494,191.5662 C285.7984,191.5432 286.1284,191.4972 286.5464,191.4032 C287.1234,191.2762 287.4974,190.6182 287.4164,189.8732 C287.3374,189.1502 286.7964,188.3062 285.5344,188.3062 Z M284.5924,205.8132 C284.2104,206.1792 284.0114,206.8152 284.0844,207.5372 C284.2154,208.8392 285.2884,210.3622 287.8774,210.3622 L287.8784,210.3622 C288.4284,210.3622 289.0344,210.2912 289.6744,210.1542 C292.6294,209.5052 293.7914,207.5212 293.6204,205.9532 C293.4814,204.6752 292.5104,203.8172 291.2044,203.8172 C290.9514,203.8172 290.6844,203.8482 290.4124,203.9112 C289.0444,204.2142 288.5004,204.9882 288.5694,205.6212 C288.5754,205.6802 288.5874,205.7372 288.6044,205.7912 C287.9014,205.6812 287.3374,205.2052 287.2124,204.5782 C287.0564,203.8052 287.6104,203.0732 288.6944,202.6192 C288.8074,202.5712 288.8784,202.4562 288.8674,202.3332 C288.8574,202.2112 288.7694,202.1092 288.6504,202.0812 C286.0964,201.4792 281.6674,199.7452 280.6824,194.8902 C280.3304,193.1752 280.7184,191.3452 281.7484,189.8692 C281.8314,189.7492 281.8104,189.5862 281.7004,189.4922 C281.6474,189.4462 281.5814,189.4232 281.5154,189.4232 C281.4454,189.4232 281.3754,189.4492 281.3204,189.5002 C278.8574,191.8342 277.7834,195.6092 278.5164,199.3512 L279.0874,202.1922 C279.4954,204.2312 280.4184,206.0822 281.7554,207.5482 C281.8094,207.6082 281.8854,207.6402 281.9644,207.6402 C281.9864,207.6402 282.0074,207.6382 282.0294,207.6332 C282.1294,207.6102 282.2094,207.5342 282.2374,207.4352 C282.4644,206.6412 283.1424,206.0172 283.9634,205.8442 C284.0994,205.8172 284.2414,205.8022 284.3844,205.8022 C284.4554,205.8022 284.5244,205.8052 284.5924,205.8132 Z M283.9354,213.7062 C283.6294,213.1742 282.3794,212.7462 282.1024,212.6572 C277.1474,211.5382 273.3154,208.0472 272.0794,203.5412 C271.7324,202.9502 271.2204,202.5412 270.9134,202.3312 C271.1144,201.9982 271.4354,201.3722 271.5364,200.6142 C271.0564,193.7672 276.0114,187.5022 283.0644,185.9842 C284.0124,185.7822 284.9614,185.5702 285.9094,185.3592 L286.1574,185.3032 C287.9424,184.9102 289.7294,184.4992 291.5074,184.0802 C291.5024,184.2092 291.5254,184.3212 291.5564,184.4092 C291.6924,184.7952 292.0924,185.1002 292.7464,185.3162 C297.2034,186.3432 300.8454,189.2912 302.5144,193.2082 C302.5364,193.2592 302.5724,193.3022 302.6164,193.3322 C303.0154,194.2272 303.7454,194.7972 304.1424,195.0562 C303.8694,195.5002 303.4004,196.4362 303.6294,197.3552 C303.5714,197.4152 303.5954,197.5182 303.6034,197.6022 C304.1854,204.2042 299.2334,210.3802 292.0844,211.9702 L288.8044,212.6902 L288.3484,212.7862 C286.8764,213.0972 285.4094,213.4082 283.9354,213.7062 Z M95.3634,214.0432 C94.4614,213.8652 89.0494,212.7472 88.4804,212.6112 C88.2154,212.5492 87.2844,211.8422 86.7474,210.8062 C86.7084,210.7322 86.6374,210.6782 86.5554,210.6602 C86.5364,210.6562 86.5154,210.6542 86.4954,210.6542 C86.4324,210.6542 86.3714,210.6742 86.3214,210.7132 C85.5174,211.3372 84.5114,211.6282 84.0854,211.6282 C84.0834,211.6272 83.9834,211.6202 83.9834,211.6202 C83.3884,211.4972 78.0274,210.2322 77.1384,210.0152 C77.0344,209.7802 76.9284,209.5442 76.8264,209.3092 C77.1094,209.3562 77.5004,209.4012 77.9604,209.4012 C79.8664,209.4012 83.2454,208.6102 84.4514,203.3092 C84.6714,202.3442 85.3324,199.4902 85.3324,199.4902 C85.2694,198.7592 84.9454,198.1402 84.7364,197.8092 C85.0934,197.5602 85.7214,197.0372 86.0754,196.2312 C86.7244,193.4092 88.2314,186.8712 88.2314,186.8712 C88.2494,186.7932 88.2334,186.7122 88.1894,186.6482 C88.1444,186.5822 88.0754,186.5392 87.9974,186.5272 C87.6254,186.4712 87.2524,186.4432 86.8904,186.4432 C81.8384,186.4432 79.0894,191.7872 78.2174,195.0832 C77.5274,195.1842 76.8324,195.2852 76.1404,195.3792 C77.5334,189.6442 77.6524,184.9252 76.4634,182.8702 L77.5224,181.9392 C78.1004,182.1342 79.5574,182.4882 83.2274,183.3752 C85.5314,183.9342 89.6694,184.9262 91.4984,185.3042 C91.7114,185.3502 91.8984,185.4072 92.0764,185.4722 C92.3364,185.5082 92.5354,185.5362 92.7544,185.5832 C95.5824,186.2482 105.3074,188.1822 106.8374,188.4422 L107.3884,189.7012 C105.4514,191.0642 103.5734,195.3982 102.4184,201.1912 C102.0624,200.9592 100.6694,200.0422 100.6694,200.0422 C101.2924,196.5392 100.9694,189.8002 95.4154,188.1662 C95.3884,188.1582 95.3624,188.1542 95.3354,188.1542 C95.2844,188.1542 95.2334,188.1672 95.1894,188.1942 C95.1214,188.2352 95.0734,188.3012 95.0574,188.3792 C94.6984,190.0982 93.9484,193.6482 93.1184,197.5272 C93.0294,198.5232 93.4074,199.3602 93.6384,199.7682 C93.2984,199.9812 92.7224,200.4082 92.3864,201.0212 C92.0884,202.3882 91.8184,203.6672 91.5574,204.8772 C91.0254,207.3682 91.2834,209.4242 92.3264,210.9912 C93.4294,212.6502 95.1174,213.2982 95.9444,213.5272 C95.8984,213.5682 95.5114,213.9142 95.3634,214.0432 Z M245.3254,194.4542 C245.2994,194.4542 245.2734,194.4572 245.2484,194.4642 C241.0864,195.6412 238.3584,200.3592 238.9034,205.4372 L238.9304,205.6742 C239.0314,206.5542 239.1314,207.4352 239.2224,208.3162 C239.4904,210.7122 240.4894,212.9552 242.0374,214.6292 C242.0924,214.6892 242.1694,214.7202 242.2454,214.7202 C242.3004,214.7202 242.3574,214.7042 242.4064,214.6702 C242.5224,214.5902 242.5614,214.4362 242.4994,214.3102 C242.2194,213.7522 242.0434,213.1842 241.9874,212.6662 C241.6424,209.4392 244.5744,206.4892 247.1614,203.8852 C249.3854,201.6472 251.3064,199.7132 251.0354,197.8562 C250.8364,196.4122 249.7674,195.4022 248.4384,195.4022 C248.3214,195.4022 248.2014,195.4102 248.0784,195.4252 C246.4594,195.6372 245.8094,196.8952 245.8844,198.0482 C245.9254,198.6842 246.1754,199.2122 246.5444,199.5272 C246.4364,199.5402 246.3294,199.5462 246.2234,199.5462 C244.9514,199.5462 244.1544,198.5942 243.9544,197.7092 C243.7554,196.8362 244.0444,195.6652 245.4474,194.9932 C245.5804,194.9292 245.6424,194.7742 245.5904,194.6362 C245.5474,194.5242 245.4404,194.4542 245.3254,194.4542 Z M250.8954,195.1642 C250.8064,195.1642 250.7194,195.2062 250.6654,195.2822 C250.5814,195.3992 250.5984,195.5602 250.7054,195.6572 C251.3634,196.2522 251.7554,196.9922 251.8744,197.8552 C252.3194,200.8742 249.9584,203.2612 247.6744,205.5712 C245.4944,207.7782 243.2384,210.0592 243.5534,212.8682 C243.8974,215.8152 245.6714,217.5042 248.4224,217.5042 C248.7074,217.5042 248.9974,217.4852 249.2914,217.4482 C249.6354,217.3962 249.9454,217.3342 250.2424,217.2622 C250.3554,217.2342 250.4674,217.1972 250.5804,217.1602 L250.8554,217.0672 C250.9744,217.0262 251.0984,216.9832 251.2054,216.9332 C251.2084,216.9322 251.2964,216.8962 251.2994,216.8952 C253.5244,215.8692 253.9694,214.0162 253.6894,212.7362 C253.4134,211.4782 252.4654,210.6322 251.3324,210.6322 C251.2224,210.6322 251.1104,210.6402 250.9964,210.6572 C250.2434,210.7522 249.7524,211.2462 249.6114,211.6742 C249.4624,211.5102 249.3954,211.2702 249.3804,211.0512 C249.3214,210.1692 250.0404,208.7482 252.2634,208.4482 C252.4504,208.4212 252.6294,208.4092 252.8014,208.4092 C254.6424,208.4092 255.5494,209.8082 255.7864,211.1172 C255.8094,211.2462 255.9174,211.3412 256.0464,211.3502 L256.0594,211.3502 C256.1884,211.3502 256.2974,211.2712 256.3364,211.1532 C256.5654,210.4302 256.7174,209.6762 256.7874,208.9122 C256.4644,206.2862 254.6424,205.0902 253.5124,205.0902 C253.4344,205.0902 253.3584,205.0952 253.2864,205.1062 C253.1674,205.1232 253.0554,205.1532 252.9544,205.1952 C253.0854,204.3192 253.8804,203.8842 254.6164,203.7772 C254.7464,203.7592 254.8804,203.7492 255.0144,203.7492 C255.3604,203.7492 255.6934,203.8122 255.9764,203.9282 C256.0114,203.9432 256.0484,203.9502 256.0854,203.9502 C256.1464,203.9502 256.2084,203.9302 256.2584,203.8902 C256.3384,203.8292 256.3794,203.7282 256.3654,203.6272 L256.3064,203.2002 C255.7924,199.7292 253.8204,196.7402 251.0324,195.1992 C250.9894,195.1742 250.9424,195.1642 250.8954,195.1642 Z M245.9844,219.7502 C239.0734,219.7502 233.2524,215.2532 232.1444,209.0572 C231.9734,208.6802 231.6744,208.2182 231.0964,207.7422 C231.3294,207.4312 231.7064,206.8402 231.8724,206.0882 C231.9174,202.0732 233.8244,198.2922 237.1124,195.6592 C237.8644,195.0062 238.2024,194.3382 238.0254,193.8632 C237.9744,193.7282 237.8494,193.5282 237.5384,193.4242 C237.7054,193.3592 237.9254,193.3002 238.2164,193.2692 C242.7504,192.8072 244.1704,192.6262 244.6154,192.4672 L244.5704,192.5182 L244.8684,192.4812 C245.8114,192.3632 246.7604,192.2452 247.7034,192.1182 C248.3574,192.0312 249.0234,191.9872 249.6814,191.9872 C256.1014,191.9872 261.7484,196.0652 263.4134,201.9052 C263.7754,202.6532 264.3174,203.1662 264.6314,203.4192 C264.4054,203.7302 264.0464,204.3052 263.9354,204.9592 C264.4524,211.9642 258.8984,218.1882 251.2884,219.1962 C250.1774,219.3452 249.0794,219.4862 247.9694,219.6252 C247.3104,219.7082 246.6424,219.7502 245.9844,219.7502 Z M128.7054,196.9842 C128.6024,196.9842 128.5054,197.0402 128.4564,197.1322 L126.6824,200.4042 C125.6684,202.2752 124.5244,204.3822 123.4354,206.4022 C123.3654,206.5342 123.4084,206.6982 123.5354,206.7772 L124.1874,207.1872 C126.2874,208.5072 128.4574,209.8742 130.9114,210.7342 C130.9414,210.7452 130.9734,210.7492 131.0044,210.7492 C131.0714,210.7492 131.1364,210.7262 131.1894,210.6822 C131.2654,210.6162 131.3014,210.5142 131.2834,210.4152 C130.3844,205.5322 129.4834,200.2552 128.9844,197.2212 C128.9644,197.1012 128.8724,197.0072 128.7524,196.9882 C128.7364,196.9852 128.7204,196.9842 128.7054,196.9842 Z M145.1624,221.2962 C145.0774,221.2962 144.9894,221.2922 144.9004,221.2852 L142.3424,221.0352 C142.2244,221.0292 141.2544,220.9302 140.3844,220.8422 L139.1124,220.7142 C138.8394,220.6802 137.6514,220.0412 136.7134,219.0152 C136.6604,218.9572 136.5844,218.9232 136.5044,218.9232 C136.4984,218.9232 136.4904,218.9232 136.4824,218.9242 C136.3954,218.9312 136.3164,218.9772 136.2684,219.0502 C135.7614,219.8152 134.9034,220.2152 134.5854,220.2152 C133.9804,220.1612 128.4104,219.4712 127.5854,219.3622 C127.5854,219.3622 127.1794,218.8692 126.9934,218.6442 C127.0514,218.6462 127.1124,218.6472 127.1744,218.6472 C127.9874,218.6472 129.5054,218.4732 130.5534,217.3152 C131.4794,216.2912 131.8434,214.7342 131.6374,212.6882 C131.6264,212.5702 131.5414,212.4712 131.4264,212.4422 C130.0804,212.0942 128.7884,211.6202 127.4784,210.9912 C127.4394,210.9722 127.3974,210.9632 127.3554,210.9632 C127.3004,210.9632 127.2464,210.9792 127.1994,211.0102 C127.1154,211.0652 127.0674,211.1612 127.0724,211.2602 C127.1024,211.8922 126.9284,212.4252 126.5694,212.8012 C126.2204,213.1672 125.7094,213.3692 125.1294,213.3692 C125.0154,213.3692 124.8994,213.3612 124.7824,213.3452 C124.4964,213.3042 124.2144,213.2202 123.9464,213.0972 C124.3214,212.9492 124.6054,212.6582 124.7464,212.2572 C125.0434,211.4132 124.7074,209.8782 122.7834,208.3362 C122.7324,208.2952 122.6704,208.2742 122.6054,208.2742 C122.5874,208.2742 122.5684,208.2762 122.5484,208.2802 C122.4664,208.2962 122.3964,208.3482 122.3564,208.4222 C121.8154,209.4242 121.3144,210.3852 120.8734,211.2362 C119.8604,213.1842 119.6794,214.8072 120.3384,216.0602 C121.0444,217.4032 122.5314,217.9422 123.3344,218.1422 C123.1284,218.3282 122.9194,218.5142 122.7114,218.7012 C122.1094,218.6192 118.9154,218.1582 117.8604,217.9872 C116.8984,217.8422 116.2814,216.4572 116.2754,216.4442 C116.2434,216.3702 116.1794,216.3122 116.1024,216.2882 C116.0744,216.2792 116.0454,216.2742 116.0154,216.2742 C115.9644,216.2742 115.9154,216.2882 115.8704,216.3142 C115.8564,216.3222 114.4004,217.1772 112.9194,217.1772 C112.7394,217.1772 112.5584,217.1652 112.3794,217.1362 C111.0134,216.9132 108.8414,216.5472 108.8414,216.5472 C107.9304,216.3872 107.6644,215.8102 107.5874,215.4382 C107.8004,215.4612 108.0214,215.4732 108.2494,215.4732 C110.2854,215.4732 113.1844,214.5232 115.2114,211.8592 C116.1454,210.6212 117.3854,208.7462 118.8964,206.2852 C118.9394,206.2152 118.9504,206.1312 118.9264,206.0532 C118.9024,205.9762 118.8464,205.9132 118.7734,205.8782 C117.6764,205.3772 116.7134,205.0752 115.7384,204.9262 C115.4484,204.8792 115.1644,204.8552 114.8944,204.8552 C113.2724,204.8552 112.3624,205.7072 112.1624,206.5752 C112.1254,206.4002 112.1194,206.2082 112.1474,206.0062 C112.3074,204.8802 113.5104,203.6682 115.7744,203.6682 C116.1504,203.6682 116.5494,203.7022 116.9604,203.7672 C117.7774,203.8892 118.6504,204.1612 119.6294,204.5952 C119.6674,204.6122 119.7064,204.6202 119.7454,204.6202 C119.8414,204.6202 119.9344,204.5712 119.9874,204.4832 L120.6884,203.3212 C121.3774,202.1772 122.0074,201.1292 122.5264,200.2962 C123.8584,198.1552 124.7994,195.1092 124.0194,193.4332 C123.7364,192.8242 123.2374,192.4522 122.5754,192.3562 C122.4444,192.3352 122.3154,192.3272 122.1934,192.3272 C121.0694,192.3272 120.3364,193.1402 120.2764,193.9262 C120.2594,194.1372 120.2924,194.3322 120.3654,194.5022 C119.0294,194.1582 118.5024,193.0542 118.5794,192.0522 C118.6294,191.3772 119.0044,190.6522 119.7034,190.6522 C119.7604,190.6522 119.8194,190.6572 119.8794,190.6662 C122.0564,191.0232 129.3574,192.0572 131.0514,192.2582 C132.0764,192.3882 132.6844,193.1822 133.0134,193.8262 C133.0614,193.9202 133.1594,193.9802 133.2654,193.9802 C133.2894,193.9852 133.3174,193.9872 133.3474,193.9872 C133.4494,193.9872 133.5784,193.9612 133.6294,193.9022 C134.2434,193.1922 134.9284,192.8172 135.6144,192.8172 C135.6824,192.8172 135.7494,192.8212 135.8144,192.8292 C136.4844,192.9082 137.0594,193.3812 137.2694,193.9962 C136.3824,194.2272 135.5184,195.0042 135.7634,197.2382 C136.3544,200.5122 137.3994,206.0652 138.4074,211.1322 C138.4224,211.2082 138.4684,211.2762 138.5354,211.3172 C138.5814,211.3452 138.6324,211.3602 138.6854,211.3602 C138.7104,211.3602 138.7344,211.3572 138.7574,211.3512 C141.0854,210.7332 141.7024,209.3752 141.8574,208.8482 C141.9354,208.8342 142.0134,208.8222 142.0914,208.8072 C141.8994,209.7362 141.2304,211.5542 138.9204,212.4732 C138.7924,212.5252 138.7184,212.6622 138.7494,212.7972 C138.8194,213.1232 138.8894,213.4362 138.9714,213.7402 C139.0354,213.8802 139.0684,213.9962 139.1034,214.1092 C140.0544,217.6032 141.5384,219.4722 143.5084,219.6592 C143.6544,219.6722 143.7934,219.6792 143.9224,219.6792 C144.6594,219.6792 145.2344,219.4702 145.6304,219.0592 C145.9334,218.7452 146.0664,218.3762 146.1254,218.0982 C147.0174,218.5512 147.2464,219.2802 147.1454,219.8502 C147.0224,220.5472 146.3484,221.2962 145.1624,221.2962 Z M175.7674,223.1402 C174.8394,223.1162 169.3734,222.9302 168.7834,222.8932 C168.5104,222.8802 167.4774,222.3462 166.7834,221.4162 C166.7324,221.3492 166.6544,221.3082 166.5704,221.3032 L166.5554,221.3032 C166.4764,221.3032 166.4014,221.3352 166.3474,221.3942 C165.5844,222.2222 164.5484,222.6742 164.2314,222.6742 C163.6704,222.6652 158.1664,222.3322 157.2274,222.2652 L156.8034,221.6162 C158.2534,221.6122 162.9174,221.0732 163.2684,214.4122 L163.4984,210.3232 C163.5004,210.2852 163.4944,210.2462 163.4804,210.2092 C163.2764,209.6522 162.9134,209.1932 162.6804,208.9362 C162.9544,208.6602 163.4044,208.1232 163.6444,207.3962 L164.1984,197.5732 C164.2024,197.4942 164.1734,197.4162 164.1194,197.3602 C164.0654,197.3052 163.9914,197.2742 163.9154,197.2742 L163.9084,197.2742 C158.1354,197.4042 156.0834,203.8222 155.7774,207.3662 L153.7974,208.0152 C154.1964,202.1272 153.5184,197.4542 152.0064,195.6262 C152.3004,195.2602 152.5944,194.8942 152.8824,194.5282 C153.5034,194.6322 155.0164,194.7342 158.7084,194.9822 C160.5904,195.1092 165.1844,195.4102 167.1464,195.4702 C167.3624,195.4802 167.5614,195.5082 167.7424,195.5372 C167.9364,195.5332 168.0784,195.5262 168.2314,195.5262 L168.4234,195.5302 C171.4824,195.7192 181.4414,195.9632 182.7144,195.9632 C182.9624,196.3432 183.2114,196.7232 183.4644,197.1042 C181.7894,198.7782 180.6764,203.3672 180.5214,209.2682 L179.9614,209.0252 C179.5104,208.8312 179.0594,208.6352 178.6114,208.4342 C178.6334,204.8782 177.1864,198.2932 171.4684,197.6252 C171.4574,197.6242 171.4464,197.6242 171.4354,197.6242 C171.3684,197.6242 171.3024,197.6472 171.2514,197.6912 C171.1914,197.7432 171.1554,197.8172 171.1524,197.8952 L170.7824,207.2452 C170.8594,208.2362 171.3784,208.9962 171.6774,209.3582 C171.3814,209.6272 170.8884,210.1472 170.6574,210.8022 C170.5914,212.2062 170.5424,213.5162 170.4924,214.7452 C170.3904,217.2882 170.9914,219.2712 172.2764,220.6382 C173.6294,222.0792 175.3974,222.4412 176.2514,222.5312 C176.0894,222.7332 175.9274,222.9352 175.7674,223.1402 Z M200.7354,222.5462 C201.5604,222.4682 203.3244,222.1272 204.6954,220.6842 C205.9944,219.3192 206.6004,217.3312 206.4984,214.7752 C206.4624,213.6082 206.4174,212.3882 206.3714,211.1502 L206.3584,210.7962 C206.3574,210.7632 206.3494,210.7302 206.3374,210.6992 C206.0904,210.1042 205.6454,209.6332 205.3724,209.3812 C205.6394,209.0592 206.0834,208.4222 206.2244,207.5942 L206.1734,206.0482 C206.0454,202.5722 205.9314,199.4972 205.8794,197.9272 C205.8764,197.8482 205.8404,197.7742 205.7814,197.7222 C205.7294,197.6782 205.6634,197.6542 205.5954,197.6542 C205.5854,197.6542 205.5744,197.6542 205.5634,197.6562 C199.8464,198.3132 198.3794,204.8952 198.3894,208.4522 C197.7544,208.7312 197.1204,209.0092 196.4794,209.2832 C196.3324,203.3772 195.2304,198.7862 193.5634,197.1122 L194.3074,195.9722 C195.5894,195.9652 205.5384,195.7402 208.6124,195.5602 L208.7934,195.5562 C208.9424,195.5562 209.0844,195.5632 209.2214,195.5702 C209.4684,195.5382 209.6694,195.5092 209.8884,195.4992 C211.8504,195.4392 216.4404,195.1462 218.3224,195.0222 C222.0134,194.7802 223.5274,194.6812 224.1474,194.5782 L225.0154,195.6752 C223.4804,197.5122 222.8134,202.0832 223.2124,208.0602 C222.5534,207.8492 221.8914,207.6312 221.2324,207.4092 C220.9274,203.8662 218.8794,197.4432 213.1124,197.3032 L213.1054,197.3032 C213.0294,197.3032 212.9564,197.3332 212.9024,197.3892 C212.8474,197.4462 212.8184,197.5222 212.8224,197.6012 C212.9124,199.3222 213.1024,202.8512 213.3124,206.7322 C213.4164,207.8162 214.0684,208.6072 214.4254,208.9662 C214.1454,209.2712 213.6794,209.8642 213.5284,210.5672 C213.5914,211.9422 213.6624,213.2222 213.7324,214.4432 C214.0724,221.0742 218.6964,221.6522 220.1844,221.6632 C220.0364,221.8862 219.8944,222.0992 219.7544,222.3072 C218.8584,222.3752 213.3924,222.6952 212.7764,222.7132 C212.4264,222.7132 211.3714,222.2242 210.6454,221.4262 C210.5914,221.3672 210.5154,221.3332 210.4354,221.3332 L210.4224,221.3332 C210.3384,221.3372 210.2604,221.3782 210.2104,221.4462 C209.4924,222.3922 208.4764,222.9112 208.2014,222.9232 C207.6354,222.9582 202.1604,223.1382 201.2194,223.1542 C201.0564,222.9522 200.8954,222.7492 200.7354,222.5462 Z" id="Fill-1"></path>
        </g>
    </g>
</svg>